<?xml version="1.0" encoding="UTF-8" standalone="no"?>
<!-- Created with Inkscape (http://www.inkscape.org/) -->

<svg
   width="166.23697mm"
   height="67.052788mm"
   viewBox="0 0 166.23697 67.052787"
   version="1.1"
   id="svg5"
   xml:space="preserve"
   sodipodi:docname="DMO_ID.svg"
   inkscape:version="1.2.2 (b0a8486541, 2022-12-01)"
   xmlns:inkscape="http://www.inkscape.org/namespaces/inkscape"
   xmlns:sodipodi="http://sodipodi.sourceforge.net/DTD/sodipodi-0.dtd"
   xmlns="http://www.w3.org/2000/svg"
   xmlns:svg="http://www.w3.org/2000/svg"><sodipodi:namedview
     id="namedview7"
     pagecolor="#ffffff"
     bordercolor="#000000"
     borderopacity="0.25"
     inkscape:showpageshadow="2"
     inkscape:pageopacity="0.0"
     inkscape:pagecheckerboard="0"
     inkscape:deskcolor="#d1d1d1"
     inkscape:document-units="mm"
     showgrid="false"
     inkscape:zoom="0.33095188"
     inkscape:cx="932.15968"
     inkscape:cy="-197.91397"
     inkscape:window-width="1920"
     inkscape:window-height="1044"
     inkscape:window-x="0"
     inkscape:window-y="0"
     inkscape:window-maximized="1"
     inkscape:current-layer="layer1" /><defs
     id="defs2" /><g
     inkscape:label="Layer 1"
     inkscape:groupmode="layer"
     id="layer1"
     transform="translate(10.427523,-21.573183)"><g
       id="g2336"
       transform="matrix(1.5110461,0,0,1.5110461,-551.76642,-77.687385)"
       style="fill:#ffffff"><path
         id="path481"
         style="font-weight:bold;font-size:31.2938px;line-height:120%;font-family:'Pseudo (BRK)';-inkscape-font-specification:'Pseudo (BRK) Bold';letter-spacing:0px;word-spacing:0px;fill:#ffffff;fill-opacity:1;stroke:none;stroke-width:2.94213;paint-order:markers stroke fill"
         d="m 367.75895,67.576237 c -0.10431,0 -0.2271,0.06241 -0.36897,0.187585 -0.11822,0.104313 -0.18453,0.20833 -0.19844,0.312643 l -1.05523,7.917346 c -0.0142,0.104313 0.0227,0.219507 0.11059,0.344682 0.11128,0.104313 0.21918,0.156063 0.32349,0.156063 h 30.29221 c 0.0834,0 0.17395,-0.05175 0.2713,-0.156063 0.0974,-0.104313 0.16181,-0.198187 0.19379,-0.281637 0.0265,-0.04173 0.0525,-0.156921 0.0775,-0.344682 0.0252,-0.187762 0.0415,-0.312582 0.0496,-0.37517 0.11707,-0.876226 0.0513,-1.710947 -0.19792,-2.503724 -0.22811,-0.792775 -0.59141,-1.512303 -1.08934,-2.159041 -0.47707,-0.646738 -1.05908,-1.209982 -1.74615,-1.689819 -0.66623,-0.479839 -1.36696,-0.855334 -2.10271,-1.126546 -0.17942,-0.06259 -0.33826,-0.125514 -0.47594,-0.188103 -0.11684,-0.06259 -0.28986,-0.09353 -0.51935,-0.09353 z m -1.43506,11.234456 c -0.0626,0 -0.1854,0.06241 -0.36897,0.187586 -0.16273,0.125175 -0.24984,0.229192 -0.26096,0.312642 l -1.03043,7.729761 0.38396,0.406693 h 8.07392 l 0.0667,-0.031 c 0.0682,-0.04173 0.12446,-0.07319 0.16899,-0.09405 0.003,-0.02086 0.0143,-0.03101 0.0351,-0.03101 0.0236,-0.02086 0.037,-0.04218 0.0398,-0.06305 0.0236,-0.02086 0.0591,-0.0518 0.10645,-0.09353 l 0.0755,-0.09405 1.03043,-7.729761 c 0.0142,-0.104313 -0.0347,-0.208329 -0.14625,-0.312642 -0.10849,-0.125175 -0.20439,-0.187586 -0.28784,-0.187586 z m 22.50044,0 c -0.10431,0 -0.22762,0.06241 -0.36949,0.187586 -0.11821,0.104313 -0.18402,0.208329 -0.19792,0.312642 l -1.03043,7.729761 0.0181,0.09405 c 0.0361,0.04173 0.0737,0.07267 0.11265,0.09353 -0.003,0.02086 0.005,0.04218 0.0227,0.06305 0.0209,0 0.0301,0.01015 0.0274,0.03101 0.039,0.02086 0.0765,0.05232 0.11266,0.09405 l 0.0894,0.031 h 8.07392 l 0.49299,-0.406693 1.03043,-7.729761 c 0.0142,-0.104313 -0.0342,-0.208329 -0.14572,-0.312642 -0.10848,-0.125175 -0.20491,-0.187586 -0.28836,-0.187586 z m -24.13548,11.327991 -0.49248,0.406694 -1.03042,7.72976 c -0.0142,0.104313 0.0227,0.218991 0.11058,0.344165 0.11127,0.104313 0.21867,0.15658 0.32298,0.15658 h 23.56445 c 0.18776,0 0.44521,-0.05227 0.77205,-0.15658 0.32685,-0.104313 0.66682,-0.229133 1.02009,-0.375171 0.35328,-0.146036 0.68582,-0.292178 0.99736,-0.438216 0.31433,-0.166899 0.55112,-0.30238 0.71107,-0.406693 0.52155,-0.312938 1.04253,-0.699093 1.56269,-1.158069 0.52294,-0.479838 0.99774,-0.990814 1.42472,-1.53324 0.45062,-0.563288 0.82072,-1.147852 1.11001,-1.752864 0.31015,-0.605013 0.50534,-1.209864 0.58601,-1.814877 0.006,-0.04173 0.0185,-0.135599 0.0382,-0.281636 0.0221,-0.1669 0.0256,-0.271434 0.0103,-0.313159 -0.01,-0.08345 -0.0511,-0.166664 -0.12351,-0.250114 -0.0695,-0.104313 -0.146,-0.15658 -0.22944,-0.15658 z" /><path
         id="path473"
         style="font-weight:bold;font-size:31.2938px;line-height:120%;font-family:'Pseudo (BRK)';-inkscape-font-specification:'Pseudo (BRK) Bold';letter-spacing:0px;word-spacing:0px;fill:#ffffff;fill-opacity:1;stroke:none;stroke-width:2.94213;paint-order:markers stroke fill"
         d="m 400.4262,67.638765 -0.49609,0.4377 -1.05575,7.917346 c -0.0142,0.104313 0.0227,0.219507 0.11059,0.344682 0.11127,0.104313 0.21918,0.156063 0.32349,0.156063 h 30.29221 c 0.0835,0 0.17395,-0.05175 0.2713,-0.156063 0.0974,-0.104313 0.16233,-0.198187 0.19431,-0.281637 0.0265,-0.04173 0.0508,-0.14626 0.0729,-0.313159 0.0252,-0.187763 0.042,-0.3131 0.0501,-0.375688 0.1029,-0.771912 0.0568,-1.522904 -0.13798,-2.253092 -0.19473,-0.730188 -0.49173,-1.397966 -0.8909,-2.002979 -0.3964,-0.625875 -0.87386,-1.189118 -1.43299,-1.689819 -0.55912,-0.5007 -1.15178,-0.907143 -1.77767,-1.22008 -0.27539,-0.125175 -0.56106,-0.250513 -0.85731,-0.375688 -0.29626,-0.125175 -0.59055,-0.187586 -0.88263,-0.187586 z m -1.43453,11.234457 c -0.10431,0 -0.22763,0.06241 -0.36949,0.187585 -0.121,0.125175 -0.18731,0.229709 -0.19844,0.313159 L 395.904,98.275138 c -0.0142,0.104313 0.0227,0.218991 0.11059,0.344165 0.11127,0.104313 0.21918,0.15658 0.32349,0.15658 h 8.0114 l 0.49661,-0.438216 2.53628,-19.026746 -0.37982,-0.437699 z m 11.23445,0 -0.4656,0.437699 -1.87069,14.130404 0.3483,0.437699 h 8.01088 l 0.49661,-0.437699 1.87121,-14.130404 -0.37983,-0.437699 z m 11.26547,0 -0.49662,0.437699 -2.53627,19.026746 0.37982,0.438216 h 8.01088 c 0.0834,0 0.19475,-0.05227 0.33383,-0.15658 0.14186,-0.125174 0.21967,-0.239852 0.23358,-0.344165 l 2.52852,-18.964217 -0.37982,-0.437699 z" /><path
         id="path465"
         style="font-weight:bold;font-size:31.2938px;line-height:120%;font-family:'Pseudo (BRK)';-inkscape-font-specification:'Pseudo (BRK) Bold';letter-spacing:0px;word-spacing:0px;fill:#ffffff;fill-opacity:1;stroke:none;stroke-width:2.94213;paint-order:markers stroke fill"
         d="m 440.39896,67.638765 c -0.22949,0 -0.5299,0.06241 -0.90124,0.187586 -0.3477,0.104313 -0.7205,0.239793 -1.11828,0.406693 -0.37691,0.1669 -0.74499,0.344505 -1.10381,0.532268 -0.33797,0.187762 -0.60149,0.364849 -0.79064,0.53175 l -1.87948,1.658814 c -0.30737,0.271212 -0.59171,0.605101 -0.85317,1.001489 -0.26148,0.396388 -0.48002,0.782026 -0.65526,1.157552 -0.0611,0.146037 -0.15167,0.354589 -0.2713,0.625802 -0.11682,0.250349 -0.21883,0.469561 -0.30644,0.657324 -0.0849,0.166901 -0.12905,0.260773 -0.13178,0.281636 l -0.15399,1.158069 c -0.0111,0.08345 0.0286,0.177324 0.11885,0.281637 0.0904,0.104313 0.177,0.156063 0.26045,0.156063 h 30.35525 c 0.10431,0 0.19481,-0.05175 0.2713,-0.156063 0.0974,-0.104313 0.17246,-0.198187 0.22531,-0.281637 l 0.0749,-0.563273 c 0.10289,-0.771913 0.0554,-1.512761 -0.14211,-2.222086 -0.19473,-0.730189 -0.50186,-1.397967 -0.9219,-2.002979 -0.39917,-0.605013 -0.87985,-1.147453 -1.44178,-1.627291 -0.55911,-0.5007 -1.14112,-0.907143 -1.74614,-1.22008 -0.25453,-0.125175 -0.53007,-0.250513 -0.82631,-0.375688 -0.29626,-0.125175 -0.6007,-0.187586 -0.91364,-0.187586 z m -8.13232,11.234457 -0.4961,0.437699 -1.02681,7.698755 c -0.0142,0.104313 0.0226,0.21899 0.11059,0.344165 0.10848,0.125175 0.21505,0.187586 0.31936,0.187586 h 7.94887 c 0.0834,0 0.19609,-0.06241 0.33796,-0.187586 0.14186,-0.125175 0.21968,-0.239852 0.23358,-0.344165 l 1.0263,-7.698755 -0.37983,-0.437699 z m 22.56296,0 -0.49661,0.437699 -1.02629,7.698755 c -0.0142,0.104313 0.0333,0.21899 0.14211,0.344165 0.10849,0.125175 0.20439,0.187586 0.28784,0.187586 h 7.94835 c 0.0834,0 0.1846,-0.05227 0.30282,-0.15658 0.11823,-0.104313 0.18266,-0.198187 0.19379,-0.281637 l 1.03869,-7.792289 -0.3793,-0.437699 z m -23.99802,11.234456 c -0.10431,0 -0.21696,0.06241 -0.33796,0.187586 -0.12099,0.125175 -0.1988,0.239852 -0.23358,0.344165 l -0.0667,0.500744 c -0.0334,0.25035 -0.0571,0.427955 -0.0713,0.532268 -0.0142,0.104312 0.0141,0.281399 0.0853,0.53175 0.23648,1.356064 0.71917,2.587085 1.44798,3.692798 0.75246,1.084851 1.77355,1.877449 3.06286,2.378149 0.23643,0.104313 0.48187,0.218991 0.73639,0.344165 0.27817,0.104313 0.56316,0.15658 0.85524,0.15658 h 17.02377 c 0.22949,0 0.47628,-0.05227 0.74052,-0.15658 0.28513,-0.104313 0.53782,-0.198186 0.75758,-0.281636 0.72183,-0.250351 1.44866,-0.615186 2.18023,-1.095024 0.75521,-0.5007 1.43655,-1.074604 2.04432,-1.721342 0.62866,-0.646738 1.14828,-1.335318 1.55856,-2.065507 0.43393,-0.75105 0.70355,-1.522845 0.80925,-2.315621 l 0.0801,-0.594795 c -0.0306,-0.08345 -0.0809,-0.177324 -0.15038,-0.281637 -0.0487,-0.104313 -0.12514,-0.156063 -0.22944,-0.156063 z" /><path
         id="path2902"
         style="font-weight:bold;font-size:6.09336px;line-height:120%;font-family:Saira;-inkscape-font-specification:'Saira Bold';letter-spacing:0px;word-spacing:0px;fill:#ffffff;fill-opacity:1;stroke-width:0.572877;paint-order:markers stroke fill"
         d="m 372.19847,103.88875 c -0.22749,0 -0.43857,0.0139 -0.63355,0.0424 -0.19093,0.0284 -0.35968,0.0874 -0.50592,0.17674 -0.14218,0.0853 -0.25362,0.21121 -0.33486,0.37775 -0.0812,0.1625 -0.12195,0.38213 -0.12195,0.65836 0,0.17873 0.0123,0.34106 0.0367,0.48731 0.0244,0.14217 0.0667,0.26645 0.12764,0.37207 0.0609,0.10561 0.14449,0.1908 0.25011,0.2558 0.10561,0.0609 0.24169,0.10162 0.40824,0.12195 l 0.85887,0.10956 c 0.0975,0.0121 0.17677,0.0261 0.23771,0.0424 0.0609,0.0121 0.10589,0.0325 0.13436,0.061 0.0325,0.0284 0.0523,0.0692 0.0605,0.12196 0.0122,0.0487 0.0186,0.11571 0.0186,0.20102 0,0.0569 -0.002,0.10778 -0.006,0.15244 -0.004,0.0447 -0.0142,0.0833 -0.0305,0.11576 -0.0122,0.0325 -0.0342,0.0631 -0.0667,0.0915 -0.0488,0.0284 -0.12427,0.0504 -0.22583,0.0667 -0.10155,0.0122 -0.24943,0.0186 -0.44441,0.0186 -0.0934,0 -0.20967,-0.002 -0.34779,-0.006 -0.13812,-0.004 -0.28436,-0.0121 -0.43873,-0.0243 l -0.45062,-0.0367 v 0.786 c 0.14217,0.0162 0.30237,0.0323 0.48111,0.0486 0.1828,0.0163 0.36762,0.0285 0.55449,0.0367 0.19092,0.008 0.3677,0.0124 0.5302,0.0124 0.17061,0 0.33081,-0.008 0.4811,-0.0243 0.15437,-0.0122 0.29472,-0.0427 0.42065,-0.0915 0.12593,-0.0528 0.23361,-0.12619 0.32298,-0.21962 0.0894,-0.0975 0.15849,-0.22715 0.20722,-0.38964 0.0487,-0.16655 0.0729,-0.37011 0.0729,-0.60978 0,-0.12187 -0.006,-0.23117 -0.0181,-0.32866 -0.0121,-0.0975 -0.0261,-0.1832 -0.0424,-0.25632 -0.0162,-0.0772 -0.0387,-0.14202 -0.0672,-0.19482 -0.0528,-0.11374 -0.11978,-0.20107 -0.20102,-0.262 -0.0772,-0.061 -0.1645,-0.10544 -0.262,-0.13384 -0.0934,-0.0284 -0.19734,-0.0488 -0.31109,-0.061 l -0.83457,-0.0977 c -0.11781,-0.0162 -0.20514,-0.0344 -0.262,-0.0548 -0.0569,-0.0203 -0.0933,-0.0568 -0.10956,-0.10956 -0.0163,-0.0569 -0.0243,-0.13616 -0.0243,-0.23771 0,-0.0812 0.006,-0.14822 0.0181,-0.20102 0.0163,-0.0528 0.0527,-0.0957 0.10956,-0.12816 0.0528,-0.0284 0.12619,-0.0466 0.21962,-0.0548 0.0934,-0.0122 0.21933,-0.0181 0.37776,-0.0181 0.12999,0 0.2682,0.004 0.41444,0.0119 0.14624,0.004 0.28608,0.0126 0.42013,0.0248 0.13812,0.008 0.25811,0.0199 0.35967,0.0362 v -0.76739 c -0.10156,-0.0243 -0.22959,-0.0447 -0.38396,-0.061 -0.15436,-0.0203 -0.31883,-0.0348 -0.49351,-0.0429 -0.17468,-0.0122 -0.34342,-0.0181 -0.50591,-0.0181 z m 6.0141,0 c -0.30873,0 -0.5707,0.0204 -0.786,0.061 -0.2153,0.0406 -0.39371,0.10973 -0.53588,0.20722 -0.14218,0.0934 -0.25413,0.22309 -0.33538,0.38964 -0.0813,0.16249 -0.13807,0.36553 -0.17053,0.60927 -0.0285,0.24374 -0.0429,0.53623 -0.0429,0.87746 0,0.34123 0.0144,0.63373 0.0429,0.87747 0.0325,0.24373 0.0872,0.44891 0.16433,0.61546 0.0813,0.1625 0.19321,0.29267 0.33538,0.39016 0.14218,0.0935 0.3211,0.16042 0.5364,0.20102 0.2153,0.0406 0.47889,0.061 0.79168,0.061 0.13812,0 0.29293,-0.006 0.46354,-0.0181 0.17061,-0.0121 0.34312,-0.0266 0.5178,-0.0429 0.17467,-0.0203 0.33487,-0.0445 0.48111,-0.0729 v -2.34611 h -1.5658 v 0.76171 h 0.59686 v 0.90795 c -0.0366,0 -0.081,0.002 -0.13384,0.006 -0.0528,0.004 -0.10746,0.008 -0.16433,0.0119 h -0.15865 c -0.1503,0 -0.27833,-0.0102 -0.38395,-0.0305 -0.10155,-0.0203 -0.1846,-0.0568 -0.2496,-0.10955 -0.061,-0.0569 -0.10971,-0.13616 -0.14624,-0.23771 -0.0325,-0.10156 -0.055,-0.23174 -0.0672,-0.39016 -0.008,-0.15843 -0.0119,-0.35343 -0.0119,-0.58498 0,-0.25999 0.006,-0.4732 0.0181,-0.63975 0.0163,-0.17062 0.0468,-0.30242 0.0915,-0.39584 0.0447,-0.0935 0.11165,-0.16043 0.20102,-0.20103 0.0894,-0.0447 0.20508,-0.0714 0.34726,-0.0796 0.14218,-0.008 0.32324,-0.0119 0.5426,-0.0119 0.0731,0 0.16635,0.004 0.28009,0.0119 0.11374,0.008 0.2375,0.0188 0.37155,0.031 0.13812,0.008 0.27634,0.022 0.41445,0.0424 v -0.76171 c -0.14624,-0.0284 -0.30481,-0.0525 -0.47542,-0.0729 -0.16656,-0.0203 -0.33479,-0.0369 -0.5054,-0.0491 -0.17061,-0.0122 -0.32542,-0.0181 -0.46354,-0.0181 z m 9.9627,0 c -0.38185,0 -0.69471,0.0284 -0.93844,0.0853 -0.24373,0.0569 -0.43446,0.13615 -0.57258,0.23771 -0.13406,0.0975 -0.22728,0.21321 -0.28008,0.34726 -0.0528,0.13406 -0.0796,0.27817 -0.0796,0.43253 0,0.30468 0.0589,0.53235 0.17673,0.68265 0.12187,0.14625 0.30506,0.24751 0.5488,0.30437 v 0.0243 c -0.16249,0.0366 -0.3007,0.0917 -0.41444,0.16485 -0.11375,0.0691 -0.20107,0.17032 -0.262,0.30437 -0.0569,0.13 -0.0853,0.30892 -0.0853,0.53641 0,0.12998 0.0118,0.25374 0.0362,0.37155 0.0284,0.11781 0.0793,0.22548 0.15244,0.32298 0.0772,0.0975 0.187,0.18319 0.32918,0.25631 0.14218,0.0691 0.327,0.12373 0.55449,0.16433 0.22748,0.0365 0.50767,0.0548 0.84077,0.0548 0.1503,0 0.31263,-0.006 0.48731,-0.0186 0.17874,-0.0121 0.35767,-0.0282 0.5364,-0.0486 0.17874,-0.0203 0.33893,-0.0423 0.48111,-0.0667 v -1.65778 h 0.64596 v -0.74311 h -1.63298 v 1.76372 c -0.0102,0.001 -0.0203,0.002 -0.0305,0.003 -0.0812,0.004 -0.16215,0.008 -0.24339,0.0124 h -0.24392 c -0.22748,0 -0.40803,-0.0123 -0.54208,-0.0367 -0.13,-0.0244 -0.22374,-0.0731 -0.28061,-0.14624 -0.0528,-0.0731 -0.0791,-0.18457 -0.0791,-0.33487 0,-0.10561 0.008,-0.19131 0.0243,-0.25631 0.0163,-0.0691 0.0447,-0.1216 0.0853,-0.15813 0.0447,-0.0406 0.10576,-0.0674 0.18294,-0.0796 0.0813,-0.0163 0.18678,-0.0243 0.31678,-0.0243 h 0.34726 v -0.74311 h -0.34726 c -0.13,0 -0.2334,-0.009 -0.31058,-0.0248 -0.0731,-0.0203 -0.12993,-0.0487 -0.17053,-0.0853 -0.0365,-0.0406 -0.0612,-0.091 -0.0734,-0.15193 -0.0122,-0.065 -0.0181,-0.14052 -0.0181,-0.22582 0,-0.10155 0.0102,-0.1846 0.0305,-0.2496 0.0244,-0.0691 0.071,-0.12212 0.14004,-0.15865 0.0731,-0.0365 0.17867,-0.0607 0.31678,-0.0729 0.13812,-0.0163 0.32081,-0.0243 0.54829,-0.0243 0.12593,0 0.26414,0.004 0.41444,0.0119 0.15437,0.008 0.30866,0.0183 0.46302,0.0305 0.15843,0.0121 0.30254,0.0266 0.43253,0.0429 v -0.70694 c -0.13812,-0.0284 -0.29455,-0.053 -0.46922,-0.0734 -0.17468,-0.0203 -0.35095,-0.0364 -0.52968,-0.0486 -0.17874,-0.0122 -0.34159,-0.0181 -0.48783,-0.0181 z m 44.8107,0 c -0.35341,0 -0.64377,0.0225 -0.87126,0.0672 -0.22343,0.0406 -0.39807,0.10921 -0.524,0.2067 -0.12593,0.0934 -0.21967,0.22361 -0.2806,0.39016 -0.0569,0.16249 -0.0933,0.36553 -0.10956,0.60927 -0.0122,0.24373 -0.0181,0.53409 -0.0181,0.87126 0,0.33717 0.006,0.62805 0.0181,0.87178 0.0163,0.24374 0.0527,0.44892 0.10956,0.61547 0.0609,0.16249 0.15467,0.29215 0.2806,0.38964 0.12593,0.0934 0.30057,0.16256 0.524,0.20722 0.22749,0.0406 0.51785,0.061 0.87126,0.061 0.34936,0 0.63596,-0.0204 0.85938,-0.061 0.22749,-0.0447 0.40589,-0.11379 0.53589,-0.20722 0.12999,-0.0975 0.22373,-0.22715 0.2806,-0.38964 0.0568,-0.16655 0.0933,-0.37173 0.10955,-0.61547 0.0163,-0.24373 0.0243,-0.53461 0.0243,-0.87178 0,-0.33717 -0.008,-0.62753 -0.0243,-0.87126 -0.0163,-0.24374 -0.0527,-0.44678 -0.10955,-0.60927 -0.0569,-0.16655 -0.15061,-0.29673 -0.2806,-0.39016 -0.13,-0.0975 -0.3084,-0.1661 -0.53589,-0.2067 -0.22342,-0.0447 -0.51002,-0.0672 -0.85938,-0.0672 z m 24.06262,0 c -0.22749,0 -0.43857,0.0139 -0.63356,0.0424 -0.19092,0.0284 -0.35967,0.0874 -0.50591,0.17674 -0.14217,0.0853 -0.25361,0.21121 -0.33486,0.37775 -0.0812,0.1625 -0.12196,0.38213 -0.12196,0.65836 0,0.17873 0.0123,0.34106 0.0367,0.48731 0.0244,0.14217 0.0667,0.26645 0.12764,0.37207 0.0609,0.10561 0.1445,0.1908 0.25012,0.2558 0.10562,0.0609 0.2417,0.10162 0.40824,0.12195 l 0.85886,0.10956 c 0.0975,0.0121 0.17678,0.0261 0.23772,0.0424 0.061,0.0121 0.10544,0.0325 0.13384,0.061 0.0325,0.0284 0.0528,0.0692 0.061,0.12196 0.0122,0.0487 0.0186,0.11571 0.0186,0.20102 0,0.0569 -0.002,0.10778 -0.006,0.15244 -0.004,0.0447 -0.0142,0.0833 -0.0305,0.11576 -0.0122,0.0325 -0.0347,0.0631 -0.0672,0.0915 -0.0487,0.0284 -0.12376,0.0504 -0.22531,0.0667 -0.10156,0.0122 -0.24995,0.0186 -0.44493,0.0186 -0.0934,0 -0.20916,-0.002 -0.34727,-0.006 -0.13812,-0.004 -0.28437,-0.0121 -0.43873,-0.0243 -0.15031,-0.0122 -0.30032,-0.0245 -0.45062,-0.0367 v 0.786 c 0.14218,0.0162 0.30237,0.0323 0.48111,0.0486 0.1828,0.0163 0.36762,0.0285 0.55449,0.0367 0.19092,0.008 0.36771,0.0124 0.5302,0.0124 0.17061,0 0.3308,-0.008 0.4811,-0.0243 0.15436,-0.0122 0.29472,-0.0427 0.42065,-0.0915 0.12593,-0.0528 0.2336,-0.12619 0.32298,-0.21962 0.0894,-0.0975 0.15849,-0.22715 0.20722,-0.38964 0.0487,-0.16655 0.0729,-0.37011 0.0729,-0.60978 0,-0.12187 -0.006,-0.23117 -0.0181,-0.32866 -0.0121,-0.0975 -0.0266,-0.1832 -0.0429,-0.25632 -0.0163,-0.0772 -0.0383,-0.14202 -0.0667,-0.19482 -0.0528,-0.11374 -0.11977,-0.20107 -0.20102,-0.262 -0.0772,-0.061 -0.16451,-0.10544 -0.262,-0.13384 -0.0934,-0.0284 -0.19734,-0.0488 -0.31109,-0.061 l -0.83458,-0.0977 c -0.1178,-0.0162 -0.20513,-0.0344 -0.26199,-0.0548 -0.0569,-0.0203 -0.0933,-0.0568 -0.10956,-0.10956 -0.0163,-0.0569 -0.0248,-0.13616 -0.0248,-0.23771 0,-0.0812 0.006,-0.14822 0.0186,-0.20102 0.0162,-0.0528 0.0527,-0.0957 0.10955,-0.12816 0.0528,-0.0284 0.1262,-0.0466 0.21963,-0.0548 0.0934,-0.0122 0.21932,-0.0181 0.37775,-0.0181 0.12999,0 0.26769,0.004 0.41393,0.0119 0.14625,0.004 0.28659,0.0126 0.42065,0.0248 0.13811,0.008 0.25811,0.0199 0.35967,0.0362 v -0.76739 c -0.10156,-0.0243 -0.22959,-0.0447 -0.38396,-0.061 -0.15437,-0.0203 -0.31884,-0.0348 -0.49351,-0.0429 -0.17467,-0.0122 -0.34342,-0.0181 -0.50591,-0.0181 z m 3.75377,0 c -0.22748,0 -0.43908,0.0139 -0.63407,0.0424 -0.19092,0.0284 -0.35915,0.0874 -0.50539,0.17674 -0.14217,0.0853 -0.25413,0.21121 -0.33538,0.37775 -0.0813,0.1625 -0.12196,0.38213 -0.12196,0.65836 0,0.17873 0.0123,0.34106 0.0367,0.48731 0.0244,0.14217 0.0672,0.26645 0.12816,0.37207 0.0609,0.10561 0.14398,0.1908 0.2496,0.2558 0.10562,0.0609 0.24169,0.10162 0.40824,0.12195 l 0.85938,0.10956 c 0.0975,0.0121 0.17678,0.0261 0.23771,0.0424 0.061,0.0121 0.10544,0.0325 0.13384,0.061 0.0325,0.0284 0.0528,0.0692 0.061,0.12196 0.0122,0.0487 0.0181,0.11571 0.0181,0.20102 0,0.0569 -0.002,0.10778 -0.006,0.15244 -0.004,0.0447 -0.0142,0.0833 -0.0305,0.11576 -0.0122,0.0325 -0.0347,0.0631 -0.0672,0.0915 -0.0487,0.0284 -0.12376,0.0504 -0.22531,0.0667 -0.10156,0.0122 -0.24995,0.0186 -0.44494,0.0186 -0.0934,0 -0.20915,-0.002 -0.34726,-0.006 -0.13812,-0.004 -0.28438,-0.0121 -0.43874,-0.0243 -0.1503,-0.0122 -0.30083,-0.0245 -0.45113,-0.0367 v 0.786 c 0.14218,0.0162 0.30289,0.0323 0.48162,0.0486 0.1828,0.0163 0.36762,0.0285 0.55449,0.0367 0.19073,0.008 0.36785,0.0124 0.5302,0.0124 0.17042,-2e-5 0.33096,-0.008 0.48111,-0.0243 0.15436,-0.0122 0.2942,-0.0427 0.42013,-0.0915 0.12592,-0.0528 0.2336,-0.12619 0.32298,-0.21962 0.0894,-0.0975 0.15849,-0.22715 0.20722,-0.38964 0.0487,-0.16655 0.0734,-0.37011 0.0734,-0.60978 0,-0.12187 -0.006,-0.23117 -0.0186,-0.32866 -0.0121,-0.0975 -0.0261,-0.1832 -0.0424,-0.25632 -0.0163,-0.0772 -0.0388,-0.14202 -0.0672,-0.19482 -0.0528,-0.11374 -0.11977,-0.20107 -0.20102,-0.262 -0.0772,-0.061 -0.16451,-0.10544 -0.262,-0.13384 -0.0934,-0.0284 -0.19683,-0.0488 -0.31057,-0.061 l -0.8351,-0.0977 c -0.1178,-0.0162 -0.20513,-0.0344 -0.262,-0.0548 -0.0569,-0.0203 -0.0933,-0.0568 -0.10955,-0.10956 -0.0163,-0.0569 -0.0243,-0.13616 -0.0243,-0.23771 0,-0.0812 0.006,-0.14822 0.0181,-0.20102 0.0163,-0.0528 0.0532,-0.0957 0.11007,-0.12816 0.0528,-0.0284 0.12568,-0.0466 0.21911,-0.0548 0.0934,-0.0122 0.21932,-0.0181 0.37775,-0.0181 0.12999,0 0.26821,0.004 0.41445,0.0119 0.14624,0.004 0.28607,0.0126 0.42013,0.0248 0.13811,0.008 0.25811,0.0199 0.35967,0.0362 v -0.76739 c -0.10156,-0.0243 -0.22959,-0.0447 -0.38396,-0.061 -0.15437,-0.0203 -0.31884,-0.0348 -0.49351,-0.0429 -0.17467,-0.0122 -0.3429,-0.0181 -0.5054,-0.0181 z m -97.87154,0.0486 v 4.1925 l 1.46813,-5.1e-4 c 0.37372,0 0.67854,-0.0183 0.91415,-0.0548 0.23561,-0.0406 0.42044,-0.10545 0.55449,-0.19482 0.13406,-0.0934 0.22942,-0.21933 0.28629,-0.37775 0.0609,-0.1625 0.0995,-0.3634 0.11575,-0.60307 0.0163,-0.23967 0.0248,-0.52841 0.0248,-0.86558 0,-0.33717 -0.009,-0.62539 -0.0248,-0.86506 -0.0163,-0.23968 -0.0548,-0.43896 -0.11575,-0.59738 -0.0569,-0.16249 -0.15223,-0.28838 -0.28629,-0.37776 -0.13405,-0.0934 -0.31888,-0.15828 -0.55449,-0.19482 -0.23561,-0.0406 -0.54043,-0.061 -0.91415,-0.061 z m 4.13101,0 v 4.1925 h 2.93729 v -0.81648 h -1.87689 v -0.89607 h 1.5906 v -0.80409 h -1.5906 v -0.85938 h 1.87689 v -0.81648 z m 7.44606,0 v 4.1925 h 1.0604 v -4.1925 z m 5.99602,0 v 4.1925 h 1.01751 v -2.45566 h 0.0305 l 1.46245,2.45566 h 0.99322 v -4.1925 h -1.01751 v 2.24844 h -0.0305 l -1.36477,-2.24844 z m 11.93674,0 v 4.1925 h 0.98702 v -2.72386 h 0.0491 l 0.90175,2.72386 h 0.71314 l 0.90743,-2.72386 h 0.0429 v 2.72386 h 1.0175 v -4.1925 h -1.45004 l -0.83457,2.48615 h -0.0429 l -0.83509,-2.48615 z m 5.45961,0 v 2.30321 c 0,0.30467 0.009,0.56878 0.0248,0.7922 0.0203,0.21936 0.0605,0.40419 0.12143,0.55449 0.0609,0.14625 0.15254,0.26196 0.27441,0.34727 0.12186,0.0853 0.28633,0.14853 0.49351,0.18913 0.20717,0.0365 0.467,0.0548 0.77979,0.0548 0.3128,0 0.57314,-0.0182 0.78032,-0.0548 0.20717,-0.0406 0.37163,-0.10383 0.49351,-0.18913 0.12186,-0.0853 0.21082,-0.20102 0.26768,-0.34727 0.0609,-0.1503 0.10001,-0.33513 0.11627,-0.55449 0.0203,-0.22342 0.0305,-0.48753 0.0305,-0.7922 v -2.30321 h -1.0604 v 2.52904 c 0,0.19499 -0.006,0.35304 -0.0186,0.47491 -0.008,0.1178 -0.0323,0.20726 -0.0729,0.2682 -0.0366,0.0609 -0.0976,0.10162 -0.18294,0.12195 -0.0853,0.0163 -0.20316,0.0243 -0.35347,0.0243 -0.1503,0 -0.26978,-0.008 -0.35915,-0.0243 -0.0853,-0.0203 -0.14853,-0.061 -0.18913,-0.12195 -0.0365,-0.0609 -0.0607,-0.1504 -0.0729,-0.2682 -0.008,-0.12187 -0.0124,-0.27992 -0.0124,-0.47491 v -2.52904 z m 4.2292,0 v 4.1925 h 2.69286 v -0.85317 h -1.63298 v -3.33933 z m 2.33371,0 v 0.85317 h 1.14515 v 3.33933 h 1.0604 v -3.33933 h 1.15187 v -0.85317 z m 3.8995,0 v 4.1925 h 1.0604 v -4.1925 z m 1.93167,0 v 4.1925 h 0.98702 v -2.72386 h 0.0491 l 0.90175,2.72386 h 0.71262 l 0.90796,-2.72386 h 0.0429 v 2.72386 h 1.01751 v -4.1925 h -1.45056 l -0.83458,2.48615 h -0.0424 l -0.83509,-2.48615 z m 5.4839,0 v 4.1925 h 2.93729 v -0.81648 h -1.87689 v -0.89607 h 1.5906 v -0.80409 h -1.5906 v -0.85938 h 1.87689 v -0.81648 z m 3.6928,0 v 4.1925 l 1.46864,-5.1e-4 c 0.37373,0 0.67803,-0.0183 0.91364,-0.0548 0.23561,-0.0406 0.42044,-0.10545 0.55449,-0.19482 0.13406,-0.0934 0.22942,-0.21933 0.28629,-0.37775 0.0609,-0.1625 0.1,-0.3634 0.11627,-0.60307 0.0163,-0.23967 0.0243,-0.52841 0.0243,-0.86558 0,-0.33717 -0.008,-0.62539 -0.0243,-0.86506 -0.0162,-0.23968 -0.0553,-0.43896 -0.11627,-0.59738 -0.0569,-0.16249 -0.15224,-0.28838 -0.28629,-0.37776 -0.13405,-0.0934 -0.31888,-0.15828 -0.55449,-0.19482 -0.23561,-0.0406 -0.53991,-0.061 -0.91364,-0.061 z m 4.13101,0 v 4.1925 h 1.0604 v -4.1925 z m 2.87631,0 -1.3286,4.1925 h 1.04851 l 0.2434,-0.82268 h 1.49293 l 0.25012,0.82268 h 1.07228 l -1.3348,-4.1925 z m 9.08523,0 v 4.1925 h 1.0604 v -1.36529 h 0.93793 c 0.2803,0 0.50583,-0.0343 0.67645,-0.10335 0.17061,-0.0691 0.29864,-0.16656 0.38395,-0.29249 0.0894,-0.12593 0.14834,-0.27432 0.17674,-0.44493 0.0325,-0.17468 0.0486,-0.3654 0.0486,-0.57258 0,-0.22748 -0.016,-0.42891 -0.0486,-0.60358 -0.0325,-0.17468 -0.0936,-0.32093 -0.18294,-0.43873 -0.0894,-0.12187 -0.2174,-0.21295 -0.38395,-0.27389 -0.16656,-0.065 -0.38354,-0.0977 -0.65164,-0.0977 z m 3.91811,0 v 4.1925 h 2.93677 v -0.81648 h -1.87688 v -0.89607 h 1.5906 v -0.80409 h -1.5906 v -0.85938 h 1.87688 v -0.81648 z m 3.69228,0 v 4.1925 h 1.01751 v -2.45566 h 0.0305 l 1.46244,2.45566 h 0.99322 v -4.1925 h -1.0175 v 2.24844 h -0.0305 l -1.36478,-2.24844 z m 4.36925,0 v 4.1925 h 1.0175 v -2.45566 h 0.0305 l 1.46245,2.45566 h 0.99322 v -4.1925 h -1.01751 v 2.24844 h -0.0305 l -1.36529,-2.24844 z m 4.36872,0 v 4.1925 h 2.93729 v -0.81648 h -1.87689 v -0.89607 h 1.59008 v -0.80409 h -1.59008 v -0.85938 h 1.87689 v -0.81648 z m -18.92598,0.76791 c 0.14624,0 0.2641,0.006 0.35347,0.0181 0.0934,0.008 0.16631,0.0349 0.21911,0.0796 0.0528,0.0406 0.0919,0.10758 0.11627,0.20102 0.0244,0.0934 0.0384,0.22309 0.0424,0.38964 0.008,0.16655 0.0124,0.37976 0.0124,0.63975 0,0.25998 -0.004,0.4732 -0.0124,0.63976 -0.004,0.16655 -0.018,0.29672 -0.0424,0.39015 -0.0244,0.0934 -0.0635,0.16256 -0.11627,0.20722 -0.0528,0.0406 -0.12568,0.0669 -0.21911,0.0791 -0.0894,0.008 -0.20723,0.0124 -0.35347,0.0124 -0.14218,0 -0.26003,-0.004 -0.35346,-0.0124 -0.0934,-0.0122 -0.16631,-0.0385 -0.21911,-0.0791 -0.0528,-0.0447 -0.0914,-0.11379 -0.11576,-0.20722 -0.0243,-0.0934 -0.041,-0.2236 -0.0491,-0.39015 -0.004,-0.16656 -0.006,-0.37978 -0.006,-0.63976 0,-0.25999 0.002,-0.4732 0.006,-0.63975 0.008,-0.16655 0.0247,-0.29621 0.0491,-0.38964 0.0244,-0.0935 0.063,-0.16042 0.11576,-0.20102 0.0528,-0.0447 0.12568,-0.0714 0.21911,-0.0796 0.0934,-0.0122 0.21128,-0.0181 0.35346,-0.0181 z m 3.63802,0.0367 h 0.54829 c 0.14218,0 0.25362,0.008 0.33487,0.0243 0.0813,0.0122 0.14233,0.0406 0.18293,0.0853 0.0406,0.0406 0.0652,0.10169 0.0734,0.18294 0.0122,0.0812 0.0181,0.18678 0.0181,0.31677 0,0.13 -0.006,0.23553 -0.0181,0.31678 -0.0122,0.0772 -0.039,0.13827 -0.0796,0.18293 -0.0406,0.0406 -0.10331,0.069 -0.18862,0.0853 -0.0812,0.0163 -0.19534,0.0243 -0.34158,0.0243 h -0.52969 z m -72.63329,0.0119 h 0.38396 c 0.16655,0 0.30262,0.004 0.40824,0.0124 0.10562,0.008 0.18918,0.0323 0.25012,0.0729 0.0609,0.0406 0.10537,0.10759 0.13384,0.20102 0.0285,0.0894 0.0446,0.21526 0.0486,0.37775 0.008,0.15843 0.0124,0.36361 0.0124,0.61547 0,0.25186 -0.004,0.45918 -0.0124,0.62167 -0.004,0.15843 -0.0202,0.28432 -0.0486,0.37775 -0.0244,0.0894 -0.0688,0.15422 -0.13384,0.19482 -0.0609,0.0365 -0.1445,0.0612 -0.25012,0.0734 -0.10562,0.008 -0.24169,0.0124 -0.40824,0.0124 h -0.38396 z m 56.54074,0 h 0.38344 c 0.16655,0 0.30262,0.004 0.40824,0.0124 0.10562,0.008 0.18918,0.0323 0.25011,0.0729 0.061,0.0406 0.10545,0.10759 0.13385,0.20102 0.0285,0.0894 0.0451,0.21526 0.0491,0.37775 0.008,0.15843 0.0119,0.36361 0.0119,0.61547 0,0.25186 -0.004,0.45918 -0.0119,0.62167 -0.004,0.15843 -0.0206,0.28432 -0.0491,0.37775 -0.0244,0.0894 -0.0688,0.15422 -0.13385,0.19482 -0.0609,0.0365 -0.14449,0.0612 -0.25011,0.0734 -0.10562,0.008 -0.24169,0.0124 -0.40824,0.0124 h -0.38344 z m 6.62957,0.0977 h 0.0424 l 0.49971,1.65726 h -1.03611 z" /></g><g
       id="g3554"
       transform="translate(-91.938089,-1.9986538)"><path
         id="path3546"
         style="font-weight:bold;font-size:31.2938px;line-height:120%;font-family:'Pseudo (BRK)';-inkscape-font-specification:'Pseudo (BRK) Bold';letter-spacing:0px;word-spacing:0px;fill:#ffffff;fill-opacity:1;stroke:none;stroke-width:2.94213;paint-order:markers stroke fill"
         d="m 367.75895,67.576237 c -0.10431,0 -0.2271,0.06241 -0.36897,0.187585 -0.11822,0.104313 -0.18453,0.20833 -0.19844,0.312643 l -1.05523,7.917346 c -0.0142,0.104313 0.0227,0.219507 0.11059,0.344682 0.11128,0.104313 0.21918,0.156063 0.32349,0.156063 h 30.29221 c 0.0834,0 0.17395,-0.05175 0.2713,-0.156063 0.0974,-0.104313 0.16181,-0.198187 0.19379,-0.281637 0.0265,-0.04173 0.0525,-0.156921 0.0775,-0.344682 0.0252,-0.187762 0.0415,-0.312582 0.0496,-0.37517 0.11707,-0.876226 0.0513,-1.710947 -0.19792,-2.503724 -0.22811,-0.792775 -0.59141,-1.512303 -1.08934,-2.159041 -0.47707,-0.646738 -1.05908,-1.209982 -1.74615,-1.689819 -0.66623,-0.479839 -1.36696,-0.855334 -2.10271,-1.126546 -0.17942,-0.06259 -0.33826,-0.125514 -0.47594,-0.188103 -0.11684,-0.06259 -0.28986,-0.09353 -0.51935,-0.09353 z m -1.43506,11.234456 c -0.0626,0 -0.1854,0.06241 -0.36897,0.187586 -0.16273,0.125175 -0.24984,0.229192 -0.26096,0.312642 l -1.03043,7.729761 0.38396,0.406693 h 8.07392 l 0.0667,-0.031 c 0.0682,-0.04173 0.12446,-0.07319 0.16899,-0.09405 0.003,-0.02086 0.0143,-0.03101 0.0351,-0.03101 0.0236,-0.02086 0.037,-0.04218 0.0398,-0.06305 0.0236,-0.02086 0.0591,-0.0518 0.10645,-0.09353 l 0.0755,-0.09405 1.03043,-7.729761 c 0.0142,-0.104313 -0.0347,-0.208329 -0.14625,-0.312642 -0.10849,-0.125175 -0.20439,-0.187586 -0.28784,-0.187586 z m 22.50044,0 c -0.10431,0 -0.22762,0.06241 -0.36949,0.187586 -0.11821,0.104313 -0.18402,0.208329 -0.19792,0.312642 l -1.03043,7.729761 0.0181,0.09405 c 0.0361,0.04173 0.0737,0.07267 0.11265,0.09353 -0.003,0.02086 0.005,0.04218 0.0227,0.06305 0.0209,0 0.0301,0.01015 0.0274,0.03101 0.039,0.02086 0.0765,0.05232 0.11266,0.09405 l 0.0894,0.031 h 8.07392 l 0.49299,-0.406693 1.03043,-7.729761 c 0.0142,-0.104313 -0.0342,-0.208329 -0.14572,-0.312642 -0.10848,-0.125175 -0.20491,-0.187586 -0.28836,-0.187586 z m -24.13548,11.327991 -0.49248,0.406694 -1.03042,7.72976 c -0.0142,0.104313 0.0227,0.218991 0.11058,0.344165 0.11127,0.104313 0.21867,0.15658 0.32298,0.15658 h 23.56445 c 0.18776,0 0.44521,-0.05227 0.77205,-0.15658 0.32685,-0.104313 0.66682,-0.229133 1.02009,-0.375171 0.35328,-0.146036 0.68582,-0.292178 0.99736,-0.438216 0.31433,-0.166899 0.55112,-0.30238 0.71107,-0.406693 0.52155,-0.312938 1.04253,-0.699093 1.56269,-1.158069 0.52294,-0.479838 0.99774,-0.990814 1.42472,-1.53324 0.45062,-0.563288 0.82072,-1.147852 1.11001,-1.752864 0.31015,-0.605013 0.50534,-1.209864 0.58601,-1.814877 0.006,-0.04173 0.0185,-0.135599 0.0382,-0.281636 0.0221,-0.1669 0.0256,-0.271434 0.0103,-0.313159 -0.01,-0.08345 -0.0511,-0.166664 -0.12351,-0.250114 -0.0695,-0.104313 -0.146,-0.15658 -0.22944,-0.15658 z" /><path
         id="path3548"
         style="font-weight:bold;font-size:31.2938px;line-height:120%;font-family:'Pseudo (BRK)';-inkscape-font-specification:'Pseudo (BRK) Bold';letter-spacing:0px;word-spacing:0px;fill:#ffffff;fill-opacity:1;stroke:none;stroke-width:2.94213;paint-order:markers stroke fill"
         d="m 400.4262,67.638765 -0.49609,0.4377 -1.05575,7.917346 c -0.0142,0.104313 0.0227,0.219507 0.11059,0.344682 0.11127,0.104313 0.21918,0.156063 0.32349,0.156063 h 30.29221 c 0.0835,0 0.17395,-0.05175 0.2713,-0.156063 0.0974,-0.104313 0.16233,-0.198187 0.19431,-0.281637 0.0265,-0.04173 0.0508,-0.14626 0.0729,-0.313159 0.0252,-0.187763 0.042,-0.3131 0.0501,-0.375688 0.1029,-0.771912 0.0568,-1.522904 -0.13798,-2.253092 -0.19473,-0.730188 -0.49173,-1.397966 -0.8909,-2.002979 -0.3964,-0.625875 -0.87386,-1.189118 -1.43299,-1.689819 -0.55912,-0.5007 -1.15178,-0.907143 -1.77767,-1.22008 -0.27539,-0.125175 -0.56106,-0.250513 -0.85731,-0.375688 -0.29626,-0.125175 -0.59055,-0.187586 -0.88263,-0.187586 z m -1.43453,11.234457 c -0.10431,0 -0.22763,0.06241 -0.36949,0.187585 -0.121,0.125175 -0.18731,0.229709 -0.19844,0.313159 L 395.904,98.275138 c -0.0142,0.104313 0.0227,0.218991 0.11059,0.344165 0.11127,0.104313 0.21918,0.15658 0.32349,0.15658 h 8.0114 l 0.49661,-0.438216 2.53628,-19.026746 -0.37982,-0.437699 z m 11.23445,0 -0.4656,0.437699 -1.87069,14.130404 0.3483,0.437699 h 8.01088 l 0.49661,-0.437699 1.87121,-14.130404 -0.37983,-0.437699 z m 11.26547,0 -0.49662,0.437699 -2.53627,19.026746 0.37982,0.438216 h 8.01088 c 0.0834,0 0.19475,-0.05227 0.33383,-0.15658 0.14186,-0.125174 0.21967,-0.239852 0.23358,-0.344165 l 2.52852,-18.964217 -0.37982,-0.437699 z" /><path
         id="path3550"
         style="font-weight:bold;font-size:31.2938px;line-height:120%;font-family:'Pseudo (BRK)';-inkscape-font-specification:'Pseudo (BRK) Bold';letter-spacing:0px;word-spacing:0px;fill:#ffffff;fill-opacity:1;stroke:none;stroke-width:2.94213;paint-order:markers stroke fill"
         d="m 440.39896,67.638765 c -0.22949,0 -0.5299,0.06241 -0.90124,0.187586 -0.3477,0.104313 -0.7205,0.239793 -1.11828,0.406693 -0.37691,0.1669 -0.74499,0.344505 -1.10381,0.532268 -0.33797,0.187762 -0.60149,0.364849 -0.79064,0.53175 l -1.87948,1.658814 c -0.30737,0.271212 -0.59171,0.605101 -0.85317,1.001489 -0.26148,0.396388 -0.48002,0.782026 -0.65526,1.157552 -0.0611,0.146037 -0.15167,0.354589 -0.2713,0.625802 -0.11682,0.250349 -0.21883,0.469561 -0.30644,0.657324 -0.0849,0.166901 -0.12905,0.260773 -0.13178,0.281636 l -0.15399,1.158069 c -0.0111,0.08345 0.0286,0.177324 0.11885,0.281637 0.0904,0.104313 0.177,0.156063 0.26045,0.156063 h 30.35525 c 0.10431,0 0.19481,-0.05175 0.2713,-0.156063 0.0974,-0.104313 0.17246,-0.198187 0.22531,-0.281637 l 0.0749,-0.563273 c 0.10289,-0.771913 0.0554,-1.512761 -0.14211,-2.222086 -0.19473,-0.730189 -0.50186,-1.397967 -0.9219,-2.002979 -0.39917,-0.605013 -0.87985,-1.147453 -1.44178,-1.627291 -0.55911,-0.5007 -1.14112,-0.907143 -1.74614,-1.22008 -0.25453,-0.125175 -0.53007,-0.250513 -0.82631,-0.375688 -0.29626,-0.125175 -0.6007,-0.187586 -0.91364,-0.187586 z m -8.13232,11.234457 -0.4961,0.437699 -1.02681,7.698755 c -0.0142,0.104313 0.0226,0.21899 0.11059,0.344165 0.10848,0.125175 0.21505,0.187586 0.31936,0.187586 h 7.94887 c 0.0834,0 0.19609,-0.06241 0.33796,-0.187586 0.14186,-0.125175 0.21968,-0.239852 0.23358,-0.344165 l 1.0263,-7.698755 -0.37983,-0.437699 z m 22.56296,0 -0.49661,0.437699 -1.02629,7.698755 c -0.0142,0.104313 0.0333,0.21899 0.14211,0.344165 0.10849,0.125175 0.20439,0.187586 0.28784,0.187586 h 7.94835 c 0.0834,0 0.1846,-0.05227 0.30282,-0.15658 0.11823,-0.104313 0.18266,-0.198187 0.19379,-0.281637 l 1.03869,-7.792289 -0.3793,-0.437699 z m -23.99802,11.234456 c -0.10431,0 -0.21696,0.06241 -0.33796,0.187586 -0.12099,0.125175 -0.1988,0.239852 -0.23358,0.344165 l -0.0667,0.500744 c -0.0334,0.25035 -0.0571,0.427955 -0.0713,0.532268 -0.0142,0.104312 0.0141,0.281399 0.0853,0.53175 0.23648,1.356064 0.71917,2.587085 1.44798,3.692798 0.75246,1.084851 1.77355,1.877449 3.06286,2.378149 0.23643,0.104313 0.48187,0.218991 0.73639,0.344165 0.27817,0.104313 0.56316,0.15658 0.85524,0.15658 h 17.02377 c 0.22949,0 0.47628,-0.05227 0.74052,-0.15658 0.28513,-0.104313 0.53782,-0.198186 0.75758,-0.281636 0.72183,-0.250351 1.44866,-0.615186 2.18023,-1.095024 0.75521,-0.5007 1.43655,-1.074604 2.04432,-1.721342 0.62866,-0.646738 1.14828,-1.335318 1.55856,-2.065507 0.43393,-0.75105 0.70355,-1.522845 0.80925,-2.315621 l 0.0801,-0.594795 c -0.0306,-0.08345 -0.0809,-0.177324 -0.15038,-0.281637 -0.0487,-0.104313 -0.12514,-0.156063 -0.22944,-0.156063 z" /><path
         id="path3552"
         style="font-weight:bold;font-size:6.09336px;line-height:120%;font-family:Saira;-inkscape-font-specification:'Saira Bold';letter-spacing:0px;word-spacing:0px;fill:#ffffff;fill-opacity:1;stroke-width:0.572877;paint-order:markers stroke fill"
         d="m 372.19847,103.88875 c -0.22749,0 -0.43857,0.0139 -0.63355,0.0424 -0.19093,0.0284 -0.35968,0.0874 -0.50592,0.17674 -0.14218,0.0853 -0.25362,0.21121 -0.33486,0.37775 -0.0812,0.1625 -0.12195,0.38213 -0.12195,0.65836 0,0.17873 0.0123,0.34106 0.0367,0.48731 0.0244,0.14217 0.0667,0.26645 0.12764,0.37207 0.0609,0.10561 0.14449,0.1908 0.25011,0.2558 0.10561,0.0609 0.24169,0.10162 0.40824,0.12195 l 0.85887,0.10956 c 0.0975,0.0121 0.17677,0.0261 0.23771,0.0424 0.0609,0.0121 0.10589,0.0325 0.13436,0.061 0.0325,0.0284 0.0523,0.0692 0.0605,0.12196 0.0122,0.0487 0.0186,0.11571 0.0186,0.20102 0,0.0569 -0.002,0.10778 -0.006,0.15244 -0.004,0.0447 -0.0142,0.0833 -0.0305,0.11576 -0.0122,0.0325 -0.0342,0.0631 -0.0667,0.0915 -0.0488,0.0284 -0.12427,0.0504 -0.22583,0.0667 -0.10155,0.0122 -0.24943,0.0186 -0.44441,0.0186 -0.0934,0 -0.20967,-0.002 -0.34779,-0.006 -0.13812,-0.004 -0.28436,-0.0121 -0.43873,-0.0243 l -0.45062,-0.0367 v 0.786 c 0.14217,0.0162 0.30237,0.0323 0.48111,0.0486 0.1828,0.0163 0.36762,0.0285 0.55449,0.0367 0.19092,0.008 0.3677,0.0124 0.5302,0.0124 0.17061,0 0.33081,-0.008 0.4811,-0.0243 0.15437,-0.0122 0.29472,-0.0427 0.42065,-0.0915 0.12593,-0.0528 0.23361,-0.12619 0.32298,-0.21962 0.0894,-0.0975 0.15849,-0.22715 0.20722,-0.38964 0.0487,-0.16655 0.0729,-0.37011 0.0729,-0.60978 0,-0.12187 -0.006,-0.23117 -0.0181,-0.32866 -0.0121,-0.0975 -0.0261,-0.1832 -0.0424,-0.25632 -0.0162,-0.0772 -0.0387,-0.14202 -0.0672,-0.19482 -0.0528,-0.11374 -0.11978,-0.20107 -0.20102,-0.262 -0.0772,-0.061 -0.1645,-0.10544 -0.262,-0.13384 -0.0934,-0.0284 -0.19734,-0.0488 -0.31109,-0.061 l -0.83457,-0.0977 c -0.11781,-0.0162 -0.20514,-0.0344 -0.262,-0.0548 -0.0569,-0.0203 -0.0933,-0.0568 -0.10956,-0.10956 -0.0163,-0.0569 -0.0243,-0.13616 -0.0243,-0.23771 0,-0.0812 0.006,-0.14822 0.0181,-0.20102 0.0163,-0.0528 0.0527,-0.0957 0.10956,-0.12816 0.0528,-0.0284 0.12619,-0.0466 0.21962,-0.0548 0.0934,-0.0122 0.21933,-0.0181 0.37776,-0.0181 0.12999,0 0.2682,0.004 0.41444,0.0119 0.14624,0.004 0.28608,0.0126 0.42013,0.0248 0.13812,0.008 0.25811,0.0199 0.35967,0.0362 v -0.76739 c -0.10156,-0.0243 -0.22959,-0.0447 -0.38396,-0.061 -0.15436,-0.0203 -0.31883,-0.0348 -0.49351,-0.0429 -0.17468,-0.0122 -0.34342,-0.0181 -0.50591,-0.0181 z m 6.0141,0 c -0.30873,0 -0.5707,0.0204 -0.786,0.061 -0.2153,0.0406 -0.39371,0.10973 -0.53588,0.20722 -0.14218,0.0934 -0.25413,0.22309 -0.33538,0.38964 -0.0813,0.16249 -0.13807,0.36553 -0.17053,0.60927 -0.0285,0.24374 -0.0429,0.53623 -0.0429,0.87746 0,0.34123 0.0144,0.63373 0.0429,0.87747 0.0325,0.24373 0.0872,0.44891 0.16433,0.61546 0.0813,0.1625 0.19321,0.29267 0.33538,0.39016 0.14218,0.0935 0.3211,0.16042 0.5364,0.20102 0.2153,0.0406 0.47889,0.061 0.79168,0.061 0.13812,0 0.29293,-0.006 0.46354,-0.0181 0.17061,-0.0121 0.34312,-0.0266 0.5178,-0.0429 0.17467,-0.0203 0.33487,-0.0445 0.48111,-0.0729 v -2.34611 h -1.5658 v 0.76171 h 0.59686 v 0.90795 c -0.0366,0 -0.081,0.002 -0.13384,0.006 -0.0528,0.004 -0.10746,0.008 -0.16433,0.0119 h -0.15865 c -0.1503,0 -0.27833,-0.0102 -0.38395,-0.0305 -0.10155,-0.0203 -0.1846,-0.0568 -0.2496,-0.10955 -0.061,-0.0569 -0.10971,-0.13616 -0.14624,-0.23771 -0.0325,-0.10156 -0.055,-0.23174 -0.0672,-0.39016 -0.008,-0.15843 -0.0119,-0.35343 -0.0119,-0.58498 0,-0.25999 0.006,-0.4732 0.0181,-0.63975 0.0163,-0.17062 0.0468,-0.30242 0.0915,-0.39584 0.0447,-0.0935 0.11165,-0.16043 0.20102,-0.20103 0.0894,-0.0447 0.20508,-0.0714 0.34726,-0.0796 0.14218,-0.008 0.32324,-0.0119 0.5426,-0.0119 0.0731,0 0.16635,0.004 0.28009,0.0119 0.11374,0.008 0.2375,0.0188 0.37155,0.031 0.13812,0.008 0.27634,0.022 0.41445,0.0424 v -0.76171 c -0.14624,-0.0284 -0.30481,-0.0525 -0.47542,-0.0729 -0.16656,-0.0203 -0.33479,-0.0369 -0.5054,-0.0491 -0.17061,-0.0122 -0.32542,-0.0181 -0.46354,-0.0181 z m 9.9627,0 c -0.38185,0 -0.69471,0.0284 -0.93844,0.0853 -0.24373,0.0569 -0.43446,0.13615 -0.57258,0.23771 -0.13406,0.0975 -0.22728,0.21321 -0.28008,0.34726 -0.0528,0.13406 -0.0796,0.27817 -0.0796,0.43253 0,0.30468 0.0589,0.53235 0.17673,0.68265 0.12187,0.14625 0.30506,0.24751 0.5488,0.30437 v 0.0243 c -0.16249,0.0366 -0.3007,0.0917 -0.41444,0.16485 -0.11375,0.0691 -0.20107,0.17032 -0.262,0.30437 -0.0569,0.13 -0.0853,0.30892 -0.0853,0.53641 0,0.12998 0.0118,0.25374 0.0362,0.37155 0.0284,0.11781 0.0793,0.22548 0.15244,0.32298 0.0772,0.0975 0.187,0.18319 0.32918,0.25631 0.14218,0.0691 0.327,0.12373 0.55449,0.16433 0.22748,0.0365 0.50767,0.0548 0.84077,0.0548 0.1503,0 0.31263,-0.006 0.48731,-0.0186 0.17874,-0.0121 0.35767,-0.0282 0.5364,-0.0486 0.17874,-0.0203 0.33893,-0.0423 0.48111,-0.0667 v -1.65778 h 0.64596 v -0.74311 h -1.63298 v 1.76372 c -0.0102,0.001 -0.0203,0.002 -0.0305,0.003 -0.0812,0.004 -0.16215,0.008 -0.24339,0.0124 h -0.24392 c -0.22748,0 -0.40803,-0.0123 -0.54208,-0.0367 -0.13,-0.0244 -0.22374,-0.0731 -0.28061,-0.14624 -0.0528,-0.0731 -0.0791,-0.18457 -0.0791,-0.33487 0,-0.10561 0.008,-0.19131 0.0243,-0.25631 0.0163,-0.0691 0.0447,-0.1216 0.0853,-0.15813 0.0447,-0.0406 0.10576,-0.0674 0.18294,-0.0796 0.0813,-0.0163 0.18678,-0.0243 0.31678,-0.0243 h 0.34726 v -0.74311 h -0.34726 c -0.13,0 -0.2334,-0.009 -0.31058,-0.0248 -0.0731,-0.0203 -0.12993,-0.0487 -0.17053,-0.0853 -0.0365,-0.0406 -0.0612,-0.091 -0.0734,-0.15193 -0.0122,-0.065 -0.0181,-0.14052 -0.0181,-0.22582 0,-0.10155 0.0102,-0.1846 0.0305,-0.2496 0.0244,-0.0691 0.071,-0.12212 0.14004,-0.15865 0.0731,-0.0365 0.17867,-0.0607 0.31678,-0.0729 0.13812,-0.0163 0.32081,-0.0243 0.54829,-0.0243 0.12593,0 0.26414,0.004 0.41444,0.0119 0.15437,0.008 0.30866,0.0183 0.46302,0.0305 0.15843,0.0121 0.30254,0.0266 0.43253,0.0429 v -0.70694 c -0.13812,-0.0284 -0.29455,-0.053 -0.46922,-0.0734 -0.17468,-0.0203 -0.35095,-0.0364 -0.52968,-0.0486 -0.17874,-0.0122 -0.34159,-0.0181 -0.48783,-0.0181 z m 44.8107,0 c -0.35341,0 -0.64377,0.0225 -0.87126,0.0672 -0.22343,0.0406 -0.39807,0.10921 -0.524,0.2067 -0.12593,0.0934 -0.21967,0.22361 -0.2806,0.39016 -0.0569,0.16249 -0.0933,0.36553 -0.10956,0.60927 -0.0122,0.24373 -0.0181,0.53409 -0.0181,0.87126 0,0.33717 0.006,0.62805 0.0181,0.87178 0.0163,0.24374 0.0527,0.44892 0.10956,0.61547 0.0609,0.16249 0.15467,0.29215 0.2806,0.38964 0.12593,0.0934 0.30057,0.16256 0.524,0.20722 0.22749,0.0406 0.51785,0.061 0.87126,0.061 0.34936,0 0.63596,-0.0204 0.85938,-0.061 0.22749,-0.0447 0.40589,-0.11379 0.53589,-0.20722 0.12999,-0.0975 0.22373,-0.22715 0.2806,-0.38964 0.0568,-0.16655 0.0933,-0.37173 0.10955,-0.61547 0.0163,-0.24373 0.0243,-0.53461 0.0243,-0.87178 0,-0.33717 -0.008,-0.62753 -0.0243,-0.87126 -0.0163,-0.24374 -0.0527,-0.44678 -0.10955,-0.60927 -0.0569,-0.16655 -0.15061,-0.29673 -0.2806,-0.39016 -0.13,-0.0975 -0.3084,-0.1661 -0.53589,-0.2067 -0.22342,-0.0447 -0.51002,-0.0672 -0.85938,-0.0672 z m 24.06262,0 c -0.22749,0 -0.43857,0.0139 -0.63356,0.0424 -0.19092,0.0284 -0.35967,0.0874 -0.50591,0.17674 -0.14217,0.0853 -0.25361,0.21121 -0.33486,0.37775 -0.0812,0.1625 -0.12196,0.38213 -0.12196,0.65836 0,0.17873 0.0123,0.34106 0.0367,0.48731 0.0244,0.14217 0.0667,0.26645 0.12764,0.37207 0.0609,0.10561 0.1445,0.1908 0.25012,0.2558 0.10562,0.0609 0.2417,0.10162 0.40824,0.12195 l 0.85886,0.10956 c 0.0975,0.0121 0.17678,0.0261 0.23772,0.0424 0.061,0.0121 0.10544,0.0325 0.13384,0.061 0.0325,0.0284 0.0528,0.0692 0.061,0.12196 0.0122,0.0487 0.0186,0.11571 0.0186,0.20102 0,0.0569 -0.002,0.10778 -0.006,0.15244 -0.004,0.0447 -0.0142,0.0833 -0.0305,0.11576 -0.0122,0.0325 -0.0347,0.0631 -0.0672,0.0915 -0.0487,0.0284 -0.12376,0.0504 -0.22531,0.0667 -0.10156,0.0122 -0.24995,0.0186 -0.44493,0.0186 -0.0934,0 -0.20916,-0.002 -0.34727,-0.006 -0.13812,-0.004 -0.28437,-0.0121 -0.43873,-0.0243 -0.15031,-0.0122 -0.30032,-0.0245 -0.45062,-0.0367 v 0.786 c 0.14218,0.0162 0.30237,0.0323 0.48111,0.0486 0.1828,0.0163 0.36762,0.0285 0.55449,0.0367 0.19092,0.008 0.36771,0.0124 0.5302,0.0124 0.17061,0 0.3308,-0.008 0.4811,-0.0243 0.15436,-0.0122 0.29472,-0.0427 0.42065,-0.0915 0.12593,-0.0528 0.2336,-0.12619 0.32298,-0.21962 0.0894,-0.0975 0.15849,-0.22715 0.20722,-0.38964 0.0487,-0.16655 0.0729,-0.37011 0.0729,-0.60978 0,-0.12187 -0.006,-0.23117 -0.0181,-0.32866 -0.0121,-0.0975 -0.0266,-0.1832 -0.0429,-0.25632 -0.0163,-0.0772 -0.0383,-0.14202 -0.0667,-0.19482 -0.0528,-0.11374 -0.11977,-0.20107 -0.20102,-0.262 -0.0772,-0.061 -0.16451,-0.10544 -0.262,-0.13384 -0.0934,-0.0284 -0.19734,-0.0488 -0.31109,-0.061 l -0.83458,-0.0977 c -0.1178,-0.0162 -0.20513,-0.0344 -0.26199,-0.0548 -0.0569,-0.0203 -0.0933,-0.0568 -0.10956,-0.10956 -0.0163,-0.0569 -0.0248,-0.13616 -0.0248,-0.23771 0,-0.0812 0.006,-0.14822 0.0186,-0.20102 0.0162,-0.0528 0.0527,-0.0957 0.10955,-0.12816 0.0528,-0.0284 0.1262,-0.0466 0.21963,-0.0548 0.0934,-0.0122 0.21932,-0.0181 0.37775,-0.0181 0.12999,0 0.26769,0.004 0.41393,0.0119 0.14625,0.004 0.28659,0.0126 0.42065,0.0248 0.13811,0.008 0.25811,0.0199 0.35967,0.0362 v -0.76739 c -0.10156,-0.0243 -0.22959,-0.0447 -0.38396,-0.061 -0.15437,-0.0203 -0.31884,-0.0348 -0.49351,-0.0429 -0.17467,-0.0122 -0.34342,-0.0181 -0.50591,-0.0181 z m 3.75377,0 c -0.22748,0 -0.43908,0.0139 -0.63407,0.0424 -0.19092,0.0284 -0.35915,0.0874 -0.50539,0.17674 -0.14217,0.0853 -0.25413,0.21121 -0.33538,0.37775 -0.0813,0.1625 -0.12196,0.38213 -0.12196,0.65836 0,0.17873 0.0123,0.34106 0.0367,0.48731 0.0244,0.14217 0.0672,0.26645 0.12816,0.37207 0.0609,0.10561 0.14398,0.1908 0.2496,0.2558 0.10562,0.0609 0.24169,0.10162 0.40824,0.12195 l 0.85938,0.10956 c 0.0975,0.0121 0.17678,0.0261 0.23771,0.0424 0.061,0.0121 0.10544,0.0325 0.13384,0.061 0.0325,0.0284 0.0528,0.0692 0.061,0.12196 0.0122,0.0487 0.0181,0.11571 0.0181,0.20102 0,0.0569 -0.002,0.10778 -0.006,0.15244 -0.004,0.0447 -0.0142,0.0833 -0.0305,0.11576 -0.0122,0.0325 -0.0347,0.0631 -0.0672,0.0915 -0.0487,0.0284 -0.12376,0.0504 -0.22531,0.0667 -0.10156,0.0122 -0.24995,0.0186 -0.44494,0.0186 -0.0934,0 -0.20915,-0.002 -0.34726,-0.006 -0.13812,-0.004 -0.28438,-0.0121 -0.43874,-0.0243 -0.1503,-0.0122 -0.30083,-0.0245 -0.45113,-0.0367 v 0.786 c 0.14218,0.0162 0.30289,0.0323 0.48162,0.0486 0.1828,0.0163 0.36762,0.0285 0.55449,0.0367 0.19073,0.008 0.36785,0.0124 0.5302,0.0124 0.17042,-2e-5 0.33096,-0.008 0.48111,-0.0243 0.15436,-0.0122 0.2942,-0.0427 0.42013,-0.0915 0.12592,-0.0528 0.2336,-0.12619 0.32298,-0.21962 0.0894,-0.0975 0.15849,-0.22715 0.20722,-0.38964 0.0487,-0.16655 0.0734,-0.37011 0.0734,-0.60978 0,-0.12187 -0.006,-0.23117 -0.0186,-0.32866 -0.0121,-0.0975 -0.0261,-0.1832 -0.0424,-0.25632 -0.0163,-0.0772 -0.0388,-0.14202 -0.0672,-0.19482 -0.0528,-0.11374 -0.11977,-0.20107 -0.20102,-0.262 -0.0772,-0.061 -0.16451,-0.10544 -0.262,-0.13384 -0.0934,-0.0284 -0.19683,-0.0488 -0.31057,-0.061 l -0.8351,-0.0977 c -0.1178,-0.0162 -0.20513,-0.0344 -0.262,-0.0548 -0.0569,-0.0203 -0.0933,-0.0568 -0.10955,-0.10956 -0.0163,-0.0569 -0.0243,-0.13616 -0.0243,-0.23771 0,-0.0812 0.006,-0.14822 0.0181,-0.20102 0.0163,-0.0528 0.0532,-0.0957 0.11007,-0.12816 0.0528,-0.0284 0.12568,-0.0466 0.21911,-0.0548 0.0934,-0.0122 0.21932,-0.0181 0.37775,-0.0181 0.12999,0 0.26821,0.004 0.41445,0.0119 0.14624,0.004 0.28607,0.0126 0.42013,0.0248 0.13811,0.008 0.25811,0.0199 0.35967,0.0362 v -0.76739 c -0.10156,-0.0243 -0.22959,-0.0447 -0.38396,-0.061 -0.15437,-0.0203 -0.31884,-0.0348 -0.49351,-0.0429 -0.17467,-0.0122 -0.3429,-0.0181 -0.5054,-0.0181 z m -97.87154,0.0486 v 4.1925 l 1.46813,-5.1e-4 c 0.37372,0 0.67854,-0.0183 0.91415,-0.0548 0.23561,-0.0406 0.42044,-0.10545 0.55449,-0.19482 0.13406,-0.0934 0.22942,-0.21933 0.28629,-0.37775 0.0609,-0.1625 0.0995,-0.3634 0.11575,-0.60307 0.0163,-0.23967 0.0248,-0.52841 0.0248,-0.86558 0,-0.33717 -0.009,-0.62539 -0.0248,-0.86506 -0.0163,-0.23968 -0.0548,-0.43896 -0.11575,-0.59738 -0.0569,-0.16249 -0.15223,-0.28838 -0.28629,-0.37776 -0.13405,-0.0934 -0.31888,-0.15828 -0.55449,-0.19482 -0.23561,-0.0406 -0.54043,-0.061 -0.91415,-0.061 z m 4.13101,0 v 4.1925 h 2.93729 v -0.81648 h -1.87689 v -0.89607 h 1.5906 v -0.80409 h -1.5906 v -0.85938 h 1.87689 v -0.81648 z m 7.44606,0 v 4.1925 h 1.0604 v -4.1925 z m 5.99602,0 v 4.1925 h 1.01751 v -2.45566 h 0.0305 l 1.46245,2.45566 h 0.99322 v -4.1925 h -1.01751 v 2.24844 h -0.0305 l -1.36477,-2.24844 z m 11.93674,0 v 4.1925 h 0.98702 v -2.72386 h 0.0491 l 0.90175,2.72386 h 0.71314 l 0.90743,-2.72386 h 0.0429 v 2.72386 h 1.0175 v -4.1925 h -1.45004 l -0.83457,2.48615 h -0.0429 l -0.83509,-2.48615 z m 5.45961,0 v 2.30321 c 0,0.30467 0.009,0.56878 0.0248,0.7922 0.0203,0.21936 0.0605,0.40419 0.12143,0.55449 0.0609,0.14625 0.15254,0.26196 0.27441,0.34727 0.12186,0.0853 0.28633,0.14853 0.49351,0.18913 0.20717,0.0365 0.467,0.0548 0.77979,0.0548 0.3128,0 0.57314,-0.0182 0.78032,-0.0548 0.20717,-0.0406 0.37163,-0.10383 0.49351,-0.18913 0.12186,-0.0853 0.21082,-0.20102 0.26768,-0.34727 0.0609,-0.1503 0.10001,-0.33513 0.11627,-0.55449 0.0203,-0.22342 0.0305,-0.48753 0.0305,-0.7922 v -2.30321 h -1.0604 v 2.52904 c 0,0.19499 -0.006,0.35304 -0.0186,0.47491 -0.008,0.1178 -0.0323,0.20726 -0.0729,0.2682 -0.0366,0.0609 -0.0976,0.10162 -0.18294,0.12195 -0.0853,0.0163 -0.20316,0.0243 -0.35347,0.0243 -0.1503,0 -0.26978,-0.008 -0.35915,-0.0243 -0.0853,-0.0203 -0.14853,-0.061 -0.18913,-0.12195 -0.0365,-0.0609 -0.0607,-0.1504 -0.0729,-0.2682 -0.008,-0.12187 -0.0124,-0.27992 -0.0124,-0.47491 v -2.52904 z m 4.2292,0 v 4.1925 h 2.69286 v -0.85317 h -1.63298 v -3.33933 z m 2.33371,0 v 0.85317 h 1.14515 v 3.33933 h 1.0604 v -3.33933 h 1.15187 v -0.85317 z m 3.8995,0 v 4.1925 h 1.0604 v -4.1925 z m 1.93167,0 v 4.1925 h 0.98702 v -2.72386 h 0.0491 l 0.90175,2.72386 h 0.71262 l 0.90796,-2.72386 h 0.0429 v 2.72386 h 1.01751 v -4.1925 h -1.45056 l -0.83458,2.48615 h -0.0424 l -0.83509,-2.48615 z m 5.4839,0 v 4.1925 h 2.93729 v -0.81648 h -1.87689 v -0.89607 h 1.5906 v -0.80409 h -1.5906 v -0.85938 h 1.87689 v -0.81648 z m 3.6928,0 v 4.1925 l 1.46864,-5.1e-4 c 0.37373,0 0.67803,-0.0183 0.91364,-0.0548 0.23561,-0.0406 0.42044,-0.10545 0.55449,-0.19482 0.13406,-0.0934 0.22942,-0.21933 0.28629,-0.37775 0.0609,-0.1625 0.1,-0.3634 0.11627,-0.60307 0.0163,-0.23967 0.0243,-0.52841 0.0243,-0.86558 0,-0.33717 -0.008,-0.62539 -0.0243,-0.86506 -0.0162,-0.23968 -0.0553,-0.43896 -0.11627,-0.59738 -0.0569,-0.16249 -0.15224,-0.28838 -0.28629,-0.37776 -0.13405,-0.0934 -0.31888,-0.15828 -0.55449,-0.19482 -0.23561,-0.0406 -0.53991,-0.061 -0.91364,-0.061 z m 4.13101,0 v 4.1925 h 1.0604 v -4.1925 z m 2.87631,0 -1.3286,4.1925 h 1.04851 l 0.2434,-0.82268 h 1.49293 l 0.25012,0.82268 h 1.07228 l -1.3348,-4.1925 z m 9.08523,0 v 4.1925 h 1.0604 v -1.36529 h 0.93793 c 0.2803,0 0.50583,-0.0343 0.67645,-0.10335 0.17061,-0.0691 0.29864,-0.16656 0.38395,-0.29249 0.0894,-0.12593 0.14834,-0.27432 0.17674,-0.44493 0.0325,-0.17468 0.0486,-0.3654 0.0486,-0.57258 0,-0.22748 -0.016,-0.42891 -0.0486,-0.60358 -0.0325,-0.17468 -0.0936,-0.32093 -0.18294,-0.43873 -0.0894,-0.12187 -0.2174,-0.21295 -0.38395,-0.27389 -0.16656,-0.065 -0.38354,-0.0977 -0.65164,-0.0977 z m 3.91811,0 v 4.1925 h 2.93677 v -0.81648 h -1.87688 v -0.89607 h 1.5906 v -0.80409 h -1.5906 v -0.85938 h 1.87688 v -0.81648 z m 3.69228,0 v 4.1925 h 1.01751 v -2.45566 h 0.0305 l 1.46244,2.45566 h 0.99322 v -4.1925 h -1.0175 v 2.24844 h -0.0305 l -1.36478,-2.24844 z m 4.36925,0 v 4.1925 h 1.0175 v -2.45566 h 0.0305 l 1.46245,2.45566 h 0.99322 v -4.1925 h -1.01751 v 2.24844 h -0.0305 l -1.36529,-2.24844 z m 4.36872,0 v 4.1925 h 2.93729 v -0.81648 h -1.87689 v -0.89607 h 1.59008 v -0.80409 h -1.59008 v -0.85938 h 1.87689 v -0.81648 z m -18.92598,0.76791 c 0.14624,0 0.2641,0.006 0.35347,0.0181 0.0934,0.008 0.16631,0.0349 0.21911,0.0796 0.0528,0.0406 0.0919,0.10758 0.11627,0.20102 0.0244,0.0934 0.0384,0.22309 0.0424,0.38964 0.008,0.16655 0.0124,0.37976 0.0124,0.63975 0,0.25998 -0.004,0.4732 -0.0124,0.63976 -0.004,0.16655 -0.018,0.29672 -0.0424,0.39015 -0.0244,0.0934 -0.0635,0.16256 -0.11627,0.20722 -0.0528,0.0406 -0.12568,0.0669 -0.21911,0.0791 -0.0894,0.008 -0.20723,0.0124 -0.35347,0.0124 -0.14218,0 -0.26003,-0.004 -0.35346,-0.0124 -0.0934,-0.0122 -0.16631,-0.0385 -0.21911,-0.0791 -0.0528,-0.0447 -0.0914,-0.11379 -0.11576,-0.20722 -0.0243,-0.0934 -0.041,-0.2236 -0.0491,-0.39015 -0.004,-0.16656 -0.006,-0.37978 -0.006,-0.63976 0,-0.25999 0.002,-0.4732 0.006,-0.63975 0.008,-0.16655 0.0247,-0.29621 0.0491,-0.38964 0.0244,-0.0935 0.063,-0.16042 0.11576,-0.20102 0.0528,-0.0447 0.12568,-0.0714 0.21911,-0.0796 0.0934,-0.0122 0.21128,-0.0181 0.35346,-0.0181 z m 3.63802,0.0367 h 0.54829 c 0.14218,0 0.25362,0.008 0.33487,0.0243 0.0813,0.0122 0.14233,0.0406 0.18293,0.0853 0.0406,0.0406 0.0652,0.10169 0.0734,0.18294 0.0122,0.0812 0.0181,0.18678 0.0181,0.31677 0,0.13 -0.006,0.23553 -0.0181,0.31678 -0.0122,0.0772 -0.039,0.13827 -0.0796,0.18293 -0.0406,0.0406 -0.10331,0.069 -0.18862,0.0853 -0.0812,0.0163 -0.19534,0.0243 -0.34158,0.0243 h -0.52969 z m -72.63329,0.0119 h 0.38396 c 0.16655,0 0.30262,0.004 0.40824,0.0124 0.10562,0.008 0.18918,0.0323 0.25012,0.0729 0.0609,0.0406 0.10537,0.10759 0.13384,0.20102 0.0285,0.0894 0.0446,0.21526 0.0486,0.37775 0.008,0.15843 0.0124,0.36361 0.0124,0.61547 0,0.25186 -0.004,0.45918 -0.0124,0.62167 -0.004,0.15843 -0.0202,0.28432 -0.0486,0.37775 -0.0244,0.0894 -0.0688,0.15422 -0.13384,0.19482 -0.0609,0.0365 -0.1445,0.0612 -0.25012,0.0734 -0.10562,0.008 -0.24169,0.0124 -0.40824,0.0124 h -0.38396 z m 56.54074,0 h 0.38344 c 0.16655,0 0.30262,0.004 0.40824,0.0124 0.10562,0.008 0.18918,0.0323 0.25011,0.0729 0.061,0.0406 0.10545,0.10759 0.13385,0.20102 0.0285,0.0894 0.0451,0.21526 0.0491,0.37775 0.008,0.15843 0.0119,0.36361 0.0119,0.61547 0,0.25186 -0.004,0.45918 -0.0119,0.62167 -0.004,0.15843 -0.0206,0.28432 -0.0491,0.37775 -0.0244,0.0894 -0.0688,0.15422 -0.13385,0.19482 -0.0609,0.0365 -0.14449,0.0612 -0.25011,0.0734 -0.10562,0.008 -0.24169,0.0124 -0.40824,0.0124 h -0.38344 z m 6.62957,0.0977 h 0.0424 l 0.49971,1.65726 h -1.03611 z" /></g><g
       id="g4793"
       transform="matrix(1.5110461,0,0,1.5110461,-551.76642,27.04209)"><path
         id="path4785"
         style="font-weight:bold;font-size:31.2938px;line-height:120%;font-family:'Pseudo (BRK)';-inkscape-font-specification:'Pseudo (BRK) Bold';letter-spacing:0px;word-spacing:0px;fill:#3d1144;fill-opacity:1;stroke:none;stroke-width:2.94213;paint-order:markers stroke fill"
         d="m 367.75895,67.576237 c -0.10431,0 -0.2271,0.06241 -0.36897,0.187585 -0.11822,0.104313 -0.18453,0.20833 -0.19844,0.312643 l -1.05523,7.917346 c -0.0142,0.104313 0.0227,0.219507 0.11059,0.344682 0.11128,0.104313 0.21918,0.156063 0.32349,0.156063 h 30.29221 c 0.0834,0 0.17395,-0.05175 0.2713,-0.156063 0.0974,-0.104313 0.16181,-0.198187 0.19379,-0.281637 0.0265,-0.04173 0.0525,-0.156921 0.0775,-0.344682 0.0252,-0.187762 0.0415,-0.312582 0.0496,-0.37517 0.11707,-0.876226 0.0513,-1.710947 -0.19792,-2.503724 -0.22811,-0.792775 -0.59141,-1.512303 -1.08934,-2.159041 -0.47707,-0.646738 -1.05908,-1.209982 -1.74615,-1.689819 -0.66623,-0.479839 -1.36696,-0.855334 -2.10271,-1.126546 -0.17942,-0.06259 -0.33826,-0.125514 -0.47594,-0.188103 -0.11684,-0.06259 -0.28986,-0.09353 -0.51935,-0.09353 z m -1.43506,11.234456 c -0.0626,0 -0.1854,0.06241 -0.36897,0.187586 -0.16273,0.125175 -0.24984,0.229192 -0.26096,0.312642 l -1.03043,7.729761 0.38396,0.406693 h 8.07392 l 0.0667,-0.031 c 0.0682,-0.04173 0.12446,-0.07319 0.16899,-0.09405 0.003,-0.02086 0.0143,-0.03101 0.0351,-0.03101 0.0236,-0.02086 0.037,-0.04218 0.0398,-0.06305 0.0236,-0.02086 0.0591,-0.0518 0.10645,-0.09353 l 0.0755,-0.09405 1.03043,-7.729761 c 0.0142,-0.104313 -0.0347,-0.208329 -0.14625,-0.312642 -0.10849,-0.125175 -0.20439,-0.187586 -0.28784,-0.187586 z m 22.50044,0 c -0.10431,0 -0.22762,0.06241 -0.36949,0.187586 -0.11821,0.104313 -0.18402,0.208329 -0.19792,0.312642 l -1.03043,7.729761 0.0181,0.09405 c 0.0361,0.04173 0.0737,0.07267 0.11265,0.09353 -0.003,0.02086 0.005,0.04218 0.0227,0.06305 0.0209,0 0.0301,0.01015 0.0274,0.03101 0.039,0.02086 0.0765,0.05232 0.11266,0.09405 l 0.0894,0.031 h 8.07392 l 0.49299,-0.406693 1.03043,-7.729761 c 0.0142,-0.104313 -0.0342,-0.208329 -0.14572,-0.312642 -0.10848,-0.125175 -0.20491,-0.187586 -0.28836,-0.187586 z m -24.13548,11.327991 -0.49248,0.406694 -1.03042,7.72976 c -0.0142,0.104313 0.0227,0.218991 0.11058,0.344165 0.11127,0.104313 0.21867,0.15658 0.32298,0.15658 h 23.56445 c 0.18776,0 0.44521,-0.05227 0.77205,-0.15658 0.32685,-0.104313 0.66682,-0.229133 1.02009,-0.375171 0.35328,-0.146036 0.68582,-0.292178 0.99736,-0.438216 0.31433,-0.166899 0.55112,-0.30238 0.71107,-0.406693 0.52155,-0.312938 1.04253,-0.699093 1.56269,-1.158069 0.52294,-0.479838 0.99774,-0.990814 1.42472,-1.53324 0.45062,-0.563288 0.82072,-1.147852 1.11001,-1.752864 0.31015,-0.605013 0.50534,-1.209864 0.58601,-1.814877 0.006,-0.04173 0.0185,-0.135599 0.0382,-0.281636 0.0221,-0.1669 0.0256,-0.271434 0.0103,-0.313159 -0.01,-0.08345 -0.0511,-0.166664 -0.12351,-0.250114 -0.0695,-0.104313 -0.146,-0.15658 -0.22944,-0.15658 z" /><path
         id="path4787"
         style="font-weight:bold;font-size:31.2938px;line-height:120%;font-family:'Pseudo (BRK)';-inkscape-font-specification:'Pseudo (BRK) Bold';letter-spacing:0px;word-spacing:0px;fill:#ce125c;fill-opacity:1;stroke:none;stroke-width:2.94213;paint-order:markers stroke fill"
         d="m 400.4262,67.638765 -0.49609,0.4377 -1.05575,7.917346 c -0.0142,0.104313 0.0227,0.219507 0.11059,0.344682 0.11127,0.104313 0.21918,0.156063 0.32349,0.156063 h 30.29221 c 0.0835,0 0.17395,-0.05175 0.2713,-0.156063 0.0974,-0.104313 0.16233,-0.198187 0.19431,-0.281637 0.0265,-0.04173 0.0508,-0.14626 0.0729,-0.313159 0.0252,-0.187763 0.042,-0.3131 0.0501,-0.375688 0.1029,-0.771912 0.0568,-1.522904 -0.13798,-2.253092 -0.19473,-0.730188 -0.49173,-1.397966 -0.8909,-2.002979 -0.3964,-0.625875 -0.87386,-1.189118 -1.43299,-1.689819 -0.55912,-0.5007 -1.15178,-0.907143 -1.77767,-1.22008 -0.27539,-0.125175 -0.56106,-0.250513 -0.85731,-0.375688 -0.29626,-0.125175 -0.59055,-0.187586 -0.88263,-0.187586 z m -1.43453,11.234457 c -0.10431,0 -0.22763,0.06241 -0.36949,0.187585 -0.121,0.125175 -0.18731,0.229709 -0.19844,0.313159 L 395.904,98.275138 c -0.0142,0.104313 0.0227,0.218991 0.11059,0.344165 0.11127,0.104313 0.21918,0.15658 0.32349,0.15658 h 8.0114 l 0.49661,-0.438216 2.53628,-19.026746 -0.37982,-0.437699 z m 11.23445,0 -0.4656,0.437699 -1.87069,14.130404 0.3483,0.437699 h 8.01088 l 0.49661,-0.437699 1.87121,-14.130404 -0.37983,-0.437699 z m 11.26547,0 -0.49662,0.437699 -2.53627,19.026746 0.37982,0.438216 h 8.01088 c 0.0834,0 0.19475,-0.05227 0.33383,-0.15658 0.14186,-0.125174 0.21967,-0.239852 0.23358,-0.344165 l 2.52852,-18.964217 -0.37982,-0.437699 z" /><path
         id="path4789"
         style="font-weight:bold;font-size:31.2938px;line-height:120%;font-family:'Pseudo (BRK)';-inkscape-font-specification:'Pseudo (BRK) Bold';letter-spacing:0px;word-spacing:0px;fill:#3d1144;fill-opacity:1;stroke:none;stroke-width:2.94213;paint-order:markers stroke fill"
         d="m 440.39896,67.638765 c -0.22949,0 -0.5299,0.06241 -0.90124,0.187586 -0.3477,0.104313 -0.7205,0.239793 -1.11828,0.406693 -0.37691,0.1669 -0.74499,0.344505 -1.10381,0.532268 -0.33797,0.187762 -0.60149,0.364849 -0.79064,0.53175 l -1.87948,1.658814 c -0.30737,0.271212 -0.59171,0.605101 -0.85317,1.001489 -0.26148,0.396388 -0.48002,0.782026 -0.65526,1.157552 -0.0611,0.146037 -0.15167,0.354589 -0.2713,0.625802 -0.11682,0.250349 -0.21883,0.469561 -0.30644,0.657324 -0.0849,0.166901 -0.12905,0.260773 -0.13178,0.281636 l -0.15399,1.158069 c -0.0111,0.08345 0.0286,0.177324 0.11885,0.281637 0.0904,0.104313 0.177,0.156063 0.26045,0.156063 h 30.35525 c 0.10431,0 0.19481,-0.05175 0.2713,-0.156063 0.0974,-0.104313 0.17246,-0.198187 0.22531,-0.281637 l 0.0749,-0.563273 c 0.10289,-0.771913 0.0554,-1.512761 -0.14211,-2.222086 -0.19473,-0.730189 -0.50186,-1.397967 -0.9219,-2.002979 -0.39917,-0.605013 -0.87985,-1.147453 -1.44178,-1.627291 -0.55911,-0.5007 -1.14112,-0.907143 -1.74614,-1.22008 -0.25453,-0.125175 -0.53007,-0.250513 -0.82631,-0.375688 -0.29626,-0.125175 -0.6007,-0.187586 -0.91364,-0.187586 z m -8.13232,11.234457 -0.4961,0.437699 -1.02681,7.698755 c -0.0142,0.104313 0.0226,0.21899 0.11059,0.344165 0.10848,0.125175 0.21505,0.187586 0.31936,0.187586 h 7.94887 c 0.0834,0 0.19609,-0.06241 0.33796,-0.187586 0.14186,-0.125175 0.21968,-0.239852 0.23358,-0.344165 l 1.0263,-7.698755 -0.37983,-0.437699 z m 22.56296,0 -0.49661,0.437699 -1.02629,7.698755 c -0.0142,0.104313 0.0333,0.21899 0.14211,0.344165 0.10849,0.125175 0.20439,0.187586 0.28784,0.187586 h 7.94835 c 0.0834,0 0.1846,-0.05227 0.30282,-0.15658 0.11823,-0.104313 0.18266,-0.198187 0.19379,-0.281637 l 1.03869,-7.792289 -0.3793,-0.437699 z m -23.99802,11.234456 c -0.10431,0 -0.21696,0.06241 -0.33796,0.187586 -0.12099,0.125175 -0.1988,0.239852 -0.23358,0.344165 l -0.0667,0.500744 c -0.0334,0.25035 -0.0571,0.427955 -0.0713,0.532268 -0.0142,0.104312 0.0141,0.281399 0.0853,0.53175 0.23648,1.356064 0.71917,2.587085 1.44798,3.692798 0.75246,1.084851 1.77355,1.877449 3.06286,2.378149 0.23643,0.104313 0.48187,0.218991 0.73639,0.344165 0.27817,0.104313 0.56316,0.15658 0.85524,0.15658 h 17.02377 c 0.22949,0 0.47628,-0.05227 0.74052,-0.15658 0.28513,-0.104313 0.53782,-0.198186 0.75758,-0.281636 0.72183,-0.250351 1.44866,-0.615186 2.18023,-1.095024 0.75521,-0.5007 1.43655,-1.074604 2.04432,-1.721342 0.62866,-0.646738 1.14828,-1.335318 1.55856,-2.065507 0.43393,-0.75105 0.70355,-1.522845 0.80925,-2.315621 l 0.0801,-0.594795 c -0.0306,-0.08345 -0.0809,-0.177324 -0.15038,-0.281637 -0.0487,-0.104313 -0.12514,-0.156063 -0.22944,-0.156063 z" /><path
         id="path4791"
         style="font-weight:bold;font-size:6.09336px;line-height:120%;font-family:Saira;-inkscape-font-specification:'Saira Bold';letter-spacing:0px;word-spacing:0px;fill:#ce125c;fill-opacity:1;stroke-width:0.572877;paint-order:markers stroke fill"
         d="m 372.19847,103.88875 c -0.22749,0 -0.43857,0.0139 -0.63355,0.0424 -0.19093,0.0284 -0.35968,0.0874 -0.50592,0.17674 -0.14218,0.0853 -0.25362,0.21121 -0.33486,0.37775 -0.0812,0.1625 -0.12195,0.38213 -0.12195,0.65836 0,0.17873 0.0123,0.34106 0.0367,0.48731 0.0244,0.14217 0.0667,0.26645 0.12764,0.37207 0.0609,0.10561 0.14449,0.1908 0.25011,0.2558 0.10561,0.0609 0.24169,0.10162 0.40824,0.12195 l 0.85887,0.10956 c 0.0975,0.0121 0.17677,0.0261 0.23771,0.0424 0.0609,0.0121 0.10589,0.0325 0.13436,0.061 0.0325,0.0284 0.0523,0.0692 0.0605,0.12196 0.0122,0.0487 0.0186,0.11571 0.0186,0.20102 0,0.0569 -0.002,0.10778 -0.006,0.15244 -0.004,0.0447 -0.0142,0.0833 -0.0305,0.11576 -0.0122,0.0325 -0.0342,0.0631 -0.0667,0.0915 -0.0488,0.0284 -0.12427,0.0504 -0.22583,0.0667 -0.10155,0.0122 -0.24943,0.0186 -0.44441,0.0186 -0.0934,0 -0.20967,-0.002 -0.34779,-0.006 -0.13812,-0.004 -0.28436,-0.0121 -0.43873,-0.0243 l -0.45062,-0.0367 v 0.786 c 0.14217,0.0162 0.30237,0.0323 0.48111,0.0486 0.1828,0.0163 0.36762,0.0285 0.55449,0.0367 0.19092,0.008 0.3677,0.0124 0.5302,0.0124 0.17061,0 0.33081,-0.008 0.4811,-0.0243 0.15437,-0.0122 0.29472,-0.0427 0.42065,-0.0915 0.12593,-0.0528 0.23361,-0.12619 0.32298,-0.21962 0.0894,-0.0975 0.15849,-0.22715 0.20722,-0.38964 0.0487,-0.16655 0.0729,-0.37011 0.0729,-0.60978 0,-0.12187 -0.006,-0.23117 -0.0181,-0.32866 -0.0121,-0.0975 -0.0261,-0.1832 -0.0424,-0.25632 -0.0162,-0.0772 -0.0387,-0.14202 -0.0672,-0.19482 -0.0528,-0.11374 -0.11978,-0.20107 -0.20102,-0.262 -0.0772,-0.061 -0.1645,-0.10544 -0.262,-0.13384 -0.0934,-0.0284 -0.19734,-0.0488 -0.31109,-0.061 l -0.83457,-0.0977 c -0.11781,-0.0162 -0.20514,-0.0344 -0.262,-0.0548 -0.0569,-0.0203 -0.0933,-0.0568 -0.10956,-0.10956 -0.0163,-0.0569 -0.0243,-0.13616 -0.0243,-0.23771 0,-0.0812 0.006,-0.14822 0.0181,-0.20102 0.0163,-0.0528 0.0527,-0.0957 0.10956,-0.12816 0.0528,-0.0284 0.12619,-0.0466 0.21962,-0.0548 0.0934,-0.0122 0.21933,-0.0181 0.37776,-0.0181 0.12999,0 0.2682,0.004 0.41444,0.0119 0.14624,0.004 0.28608,0.0126 0.42013,0.0248 0.13812,0.008 0.25811,0.0199 0.35967,0.0362 v -0.76739 c -0.10156,-0.0243 -0.22959,-0.0447 -0.38396,-0.061 -0.15436,-0.0203 -0.31883,-0.0348 -0.49351,-0.0429 -0.17468,-0.0122 -0.34342,-0.0181 -0.50591,-0.0181 z m 6.0141,0 c -0.30873,0 -0.5707,0.0204 -0.786,0.061 -0.2153,0.0406 -0.39371,0.10973 -0.53588,0.20722 -0.14218,0.0934 -0.25413,0.22309 -0.33538,0.38964 -0.0813,0.16249 -0.13807,0.36553 -0.17053,0.60927 -0.0285,0.24374 -0.0429,0.53623 -0.0429,0.87746 0,0.34123 0.0144,0.63373 0.0429,0.87747 0.0325,0.24373 0.0872,0.44891 0.16433,0.61546 0.0813,0.1625 0.19321,0.29267 0.33538,0.39016 0.14218,0.0935 0.3211,0.16042 0.5364,0.20102 0.2153,0.0406 0.47889,0.061 0.79168,0.061 0.13812,0 0.29293,-0.006 0.46354,-0.0181 0.17061,-0.0121 0.34312,-0.0266 0.5178,-0.0429 0.17467,-0.0203 0.33487,-0.0445 0.48111,-0.0729 v -2.34611 h -1.5658 v 0.76171 h 0.59686 v 0.90795 c -0.0366,0 -0.081,0.002 -0.13384,0.006 -0.0528,0.004 -0.10746,0.008 -0.16433,0.0119 h -0.15865 c -0.1503,0 -0.27833,-0.0102 -0.38395,-0.0305 -0.10155,-0.0203 -0.1846,-0.0568 -0.2496,-0.10955 -0.061,-0.0569 -0.10971,-0.13616 -0.14624,-0.23771 -0.0325,-0.10156 -0.055,-0.23174 -0.0672,-0.39016 -0.008,-0.15843 -0.0119,-0.35343 -0.0119,-0.58498 0,-0.25999 0.006,-0.4732 0.0181,-0.63975 0.0163,-0.17062 0.0468,-0.30242 0.0915,-0.39584 0.0447,-0.0935 0.11165,-0.16043 0.20102,-0.20103 0.0894,-0.0447 0.20508,-0.0714 0.34726,-0.0796 0.14218,-0.008 0.32324,-0.0119 0.5426,-0.0119 0.0731,0 0.16635,0.004 0.28009,0.0119 0.11374,0.008 0.2375,0.0188 0.37155,0.031 0.13812,0.008 0.27634,0.022 0.41445,0.0424 v -0.76171 c -0.14624,-0.0284 -0.30481,-0.0525 -0.47542,-0.0729 -0.16656,-0.0203 -0.33479,-0.0369 -0.5054,-0.0491 -0.17061,-0.0122 -0.32542,-0.0181 -0.46354,-0.0181 z m 9.9627,0 c -0.38185,0 -0.69471,0.0284 -0.93844,0.0853 -0.24373,0.0569 -0.43446,0.13615 -0.57258,0.23771 -0.13406,0.0975 -0.22728,0.21321 -0.28008,0.34726 -0.0528,0.13406 -0.0796,0.27817 -0.0796,0.43253 0,0.30468 0.0589,0.53235 0.17673,0.68265 0.12187,0.14625 0.30506,0.24751 0.5488,0.30437 v 0.0243 c -0.16249,0.0366 -0.3007,0.0917 -0.41444,0.16485 -0.11375,0.0691 -0.20107,0.17032 -0.262,0.30437 -0.0569,0.13 -0.0853,0.30892 -0.0853,0.53641 0,0.12998 0.0118,0.25374 0.0362,0.37155 0.0284,0.11781 0.0793,0.22548 0.15244,0.32298 0.0772,0.0975 0.187,0.18319 0.32918,0.25631 0.14218,0.0691 0.327,0.12373 0.55449,0.16433 0.22748,0.0365 0.50767,0.0548 0.84077,0.0548 0.1503,0 0.31263,-0.006 0.48731,-0.0186 0.17874,-0.0121 0.35767,-0.0282 0.5364,-0.0486 0.17874,-0.0203 0.33893,-0.0423 0.48111,-0.0667 v -1.65778 h 0.64596 v -0.74311 h -1.63298 v 1.76372 c -0.0102,0.001 -0.0203,0.002 -0.0305,0.003 -0.0812,0.004 -0.16215,0.008 -0.24339,0.0124 h -0.24392 c -0.22748,0 -0.40803,-0.0123 -0.54208,-0.0367 -0.13,-0.0244 -0.22374,-0.0731 -0.28061,-0.14624 -0.0528,-0.0731 -0.0791,-0.18457 -0.0791,-0.33487 0,-0.10561 0.008,-0.19131 0.0243,-0.25631 0.0163,-0.0691 0.0447,-0.1216 0.0853,-0.15813 0.0447,-0.0406 0.10576,-0.0674 0.18294,-0.0796 0.0813,-0.0163 0.18678,-0.0243 0.31678,-0.0243 h 0.34726 v -0.74311 h -0.34726 c -0.13,0 -0.2334,-0.009 -0.31058,-0.0248 -0.0731,-0.0203 -0.12993,-0.0487 -0.17053,-0.0853 -0.0365,-0.0406 -0.0612,-0.091 -0.0734,-0.15193 -0.0122,-0.065 -0.0181,-0.14052 -0.0181,-0.22582 0,-0.10155 0.0102,-0.1846 0.0305,-0.2496 0.0244,-0.0691 0.071,-0.12212 0.14004,-0.15865 0.0731,-0.0365 0.17867,-0.0607 0.31678,-0.0729 0.13812,-0.0163 0.32081,-0.0243 0.54829,-0.0243 0.12593,0 0.26414,0.004 0.41444,0.0119 0.15437,0.008 0.30866,0.0183 0.46302,0.0305 0.15843,0.0121 0.30254,0.0266 0.43253,0.0429 v -0.70694 c -0.13812,-0.0284 -0.29455,-0.053 -0.46922,-0.0734 -0.17468,-0.0203 -0.35095,-0.0364 -0.52968,-0.0486 -0.17874,-0.0122 -0.34159,-0.0181 -0.48783,-0.0181 z m 44.8107,0 c -0.35341,0 -0.64377,0.0225 -0.87126,0.0672 -0.22343,0.0406 -0.39807,0.10921 -0.524,0.2067 -0.12593,0.0934 -0.21967,0.22361 -0.2806,0.39016 -0.0569,0.16249 -0.0933,0.36553 -0.10956,0.60927 -0.0122,0.24373 -0.0181,0.53409 -0.0181,0.87126 0,0.33717 0.006,0.62805 0.0181,0.87178 0.0163,0.24374 0.0527,0.44892 0.10956,0.61547 0.0609,0.16249 0.15467,0.29215 0.2806,0.38964 0.12593,0.0934 0.30057,0.16256 0.524,0.20722 0.22749,0.0406 0.51785,0.061 0.87126,0.061 0.34936,0 0.63596,-0.0204 0.85938,-0.061 0.22749,-0.0447 0.40589,-0.11379 0.53589,-0.20722 0.12999,-0.0975 0.22373,-0.22715 0.2806,-0.38964 0.0568,-0.16655 0.0933,-0.37173 0.10955,-0.61547 0.0163,-0.24373 0.0243,-0.53461 0.0243,-0.87178 0,-0.33717 -0.008,-0.62753 -0.0243,-0.87126 -0.0163,-0.24374 -0.0527,-0.44678 -0.10955,-0.60927 -0.0569,-0.16655 -0.15061,-0.29673 -0.2806,-0.39016 -0.13,-0.0975 -0.3084,-0.1661 -0.53589,-0.2067 -0.22342,-0.0447 -0.51002,-0.0672 -0.85938,-0.0672 z m 24.06262,0 c -0.22749,0 -0.43857,0.0139 -0.63356,0.0424 -0.19092,0.0284 -0.35967,0.0874 -0.50591,0.17674 -0.14217,0.0853 -0.25361,0.21121 -0.33486,0.37775 -0.0812,0.1625 -0.12196,0.38213 -0.12196,0.65836 0,0.17873 0.0123,0.34106 0.0367,0.48731 0.0244,0.14217 0.0667,0.26645 0.12764,0.37207 0.0609,0.10561 0.1445,0.1908 0.25012,0.2558 0.10562,0.0609 0.2417,0.10162 0.40824,0.12195 l 0.85886,0.10956 c 0.0975,0.0121 0.17678,0.0261 0.23772,0.0424 0.061,0.0121 0.10544,0.0325 0.13384,0.061 0.0325,0.0284 0.0528,0.0692 0.061,0.12196 0.0122,0.0487 0.0186,0.11571 0.0186,0.20102 0,0.0569 -0.002,0.10778 -0.006,0.15244 -0.004,0.0447 -0.0142,0.0833 -0.0305,0.11576 -0.0122,0.0325 -0.0347,0.0631 -0.0672,0.0915 -0.0487,0.0284 -0.12376,0.0504 -0.22531,0.0667 -0.10156,0.0122 -0.24995,0.0186 -0.44493,0.0186 -0.0934,0 -0.20916,-0.002 -0.34727,-0.006 -0.13812,-0.004 -0.28437,-0.0121 -0.43873,-0.0243 -0.15031,-0.0122 -0.30032,-0.0245 -0.45062,-0.0367 v 0.786 c 0.14218,0.0162 0.30237,0.0323 0.48111,0.0486 0.1828,0.0163 0.36762,0.0285 0.55449,0.0367 0.19092,0.008 0.36771,0.0124 0.5302,0.0124 0.17061,0 0.3308,-0.008 0.4811,-0.0243 0.15436,-0.0122 0.29472,-0.0427 0.42065,-0.0915 0.12593,-0.0528 0.2336,-0.12619 0.32298,-0.21962 0.0894,-0.0975 0.15849,-0.22715 0.20722,-0.38964 0.0487,-0.16655 0.0729,-0.37011 0.0729,-0.60978 0,-0.12187 -0.006,-0.23117 -0.0181,-0.32866 -0.0121,-0.0975 -0.0266,-0.1832 -0.0429,-0.25632 -0.0163,-0.0772 -0.0383,-0.14202 -0.0667,-0.19482 -0.0528,-0.11374 -0.11977,-0.20107 -0.20102,-0.262 -0.0772,-0.061 -0.16451,-0.10544 -0.262,-0.13384 -0.0934,-0.0284 -0.19734,-0.0488 -0.31109,-0.061 l -0.83458,-0.0977 c -0.1178,-0.0162 -0.20513,-0.0344 -0.26199,-0.0548 -0.0569,-0.0203 -0.0933,-0.0568 -0.10956,-0.10956 -0.0163,-0.0569 -0.0248,-0.13616 -0.0248,-0.23771 0,-0.0812 0.006,-0.14822 0.0186,-0.20102 0.0162,-0.0528 0.0527,-0.0957 0.10955,-0.12816 0.0528,-0.0284 0.1262,-0.0466 0.21963,-0.0548 0.0934,-0.0122 0.21932,-0.0181 0.37775,-0.0181 0.12999,0 0.26769,0.004 0.41393,0.0119 0.14625,0.004 0.28659,0.0126 0.42065,0.0248 0.13811,0.008 0.25811,0.0199 0.35967,0.0362 v -0.76739 c -0.10156,-0.0243 -0.22959,-0.0447 -0.38396,-0.061 -0.15437,-0.0203 -0.31884,-0.0348 -0.49351,-0.0429 -0.17467,-0.0122 -0.34342,-0.0181 -0.50591,-0.0181 z m 3.75377,0 c -0.22748,0 -0.43908,0.0139 -0.63407,0.0424 -0.19092,0.0284 -0.35915,0.0874 -0.50539,0.17674 -0.14217,0.0853 -0.25413,0.21121 -0.33538,0.37775 -0.0813,0.1625 -0.12196,0.38213 -0.12196,0.65836 0,0.17873 0.0123,0.34106 0.0367,0.48731 0.0244,0.14217 0.0672,0.26645 0.12816,0.37207 0.0609,0.10561 0.14398,0.1908 0.2496,0.2558 0.10562,0.0609 0.24169,0.10162 0.40824,0.12195 l 0.85938,0.10956 c 0.0975,0.0121 0.17678,0.0261 0.23771,0.0424 0.061,0.0121 0.10544,0.0325 0.13384,0.061 0.0325,0.0284 0.0528,0.0692 0.061,0.12196 0.0122,0.0487 0.0181,0.11571 0.0181,0.20102 0,0.0569 -0.002,0.10778 -0.006,0.15244 -0.004,0.0447 -0.0142,0.0833 -0.0305,0.11576 -0.0122,0.0325 -0.0347,0.0631 -0.0672,0.0915 -0.0487,0.0284 -0.12376,0.0504 -0.22531,0.0667 -0.10156,0.0122 -0.24995,0.0186 -0.44494,0.0186 -0.0934,0 -0.20915,-0.002 -0.34726,-0.006 -0.13812,-0.004 -0.28438,-0.0121 -0.43874,-0.0243 -0.1503,-0.0122 -0.30083,-0.0245 -0.45113,-0.0367 v 0.786 c 0.14218,0.0162 0.30289,0.0323 0.48162,0.0486 0.1828,0.0163 0.36762,0.0285 0.55449,0.0367 0.19073,0.008 0.36785,0.0124 0.5302,0.0124 0.17042,-2e-5 0.33096,-0.008 0.48111,-0.0243 0.15436,-0.0122 0.2942,-0.0427 0.42013,-0.0915 0.12592,-0.0528 0.2336,-0.12619 0.32298,-0.21962 0.0894,-0.0975 0.15849,-0.22715 0.20722,-0.38964 0.0487,-0.16655 0.0734,-0.37011 0.0734,-0.60978 0,-0.12187 -0.006,-0.23117 -0.0186,-0.32866 -0.0121,-0.0975 -0.0261,-0.1832 -0.0424,-0.25632 -0.0163,-0.0772 -0.0388,-0.14202 -0.0672,-0.19482 -0.0528,-0.11374 -0.11977,-0.20107 -0.20102,-0.262 -0.0772,-0.061 -0.16451,-0.10544 -0.262,-0.13384 -0.0934,-0.0284 -0.19683,-0.0488 -0.31057,-0.061 l -0.8351,-0.0977 c -0.1178,-0.0162 -0.20513,-0.0344 -0.262,-0.0548 -0.0569,-0.0203 -0.0933,-0.0568 -0.10955,-0.10956 -0.0163,-0.0569 -0.0243,-0.13616 -0.0243,-0.23771 0,-0.0812 0.006,-0.14822 0.0181,-0.20102 0.0163,-0.0528 0.0532,-0.0957 0.11007,-0.12816 0.0528,-0.0284 0.12568,-0.0466 0.21911,-0.0548 0.0934,-0.0122 0.21932,-0.0181 0.37775,-0.0181 0.12999,0 0.26821,0.004 0.41445,0.0119 0.14624,0.004 0.28607,0.0126 0.42013,0.0248 0.13811,0.008 0.25811,0.0199 0.35967,0.0362 v -0.76739 c -0.10156,-0.0243 -0.22959,-0.0447 -0.38396,-0.061 -0.15437,-0.0203 -0.31884,-0.0348 -0.49351,-0.0429 -0.17467,-0.0122 -0.3429,-0.0181 -0.5054,-0.0181 z m -97.87154,0.0486 v 4.1925 l 1.46813,-5.1e-4 c 0.37372,0 0.67854,-0.0183 0.91415,-0.0548 0.23561,-0.0406 0.42044,-0.10545 0.55449,-0.19482 0.13406,-0.0934 0.22942,-0.21933 0.28629,-0.37775 0.0609,-0.1625 0.0995,-0.3634 0.11575,-0.60307 0.0163,-0.23967 0.0248,-0.52841 0.0248,-0.86558 0,-0.33717 -0.009,-0.62539 -0.0248,-0.86506 -0.0163,-0.23968 -0.0548,-0.43896 -0.11575,-0.59738 -0.0569,-0.16249 -0.15223,-0.28838 -0.28629,-0.37776 -0.13405,-0.0934 -0.31888,-0.15828 -0.55449,-0.19482 -0.23561,-0.0406 -0.54043,-0.061 -0.91415,-0.061 z m 4.13101,0 v 4.1925 h 2.93729 v -0.81648 h -1.87689 v -0.89607 h 1.5906 v -0.80409 h -1.5906 v -0.85938 h 1.87689 v -0.81648 z m 7.44606,0 v 4.1925 h 1.0604 v -4.1925 z m 5.99602,0 v 4.1925 h 1.01751 v -2.45566 h 0.0305 l 1.46245,2.45566 h 0.99322 v -4.1925 h -1.01751 v 2.24844 h -0.0305 l -1.36477,-2.24844 z m 11.93674,0 v 4.1925 h 0.98702 v -2.72386 h 0.0491 l 0.90175,2.72386 h 0.71314 l 0.90743,-2.72386 h 0.0429 v 2.72386 h 1.0175 v -4.1925 h -1.45004 l -0.83457,2.48615 h -0.0429 l -0.83509,-2.48615 z m 5.45961,0 v 2.30321 c 0,0.30467 0.009,0.56878 0.0248,0.7922 0.0203,0.21936 0.0605,0.40419 0.12143,0.55449 0.0609,0.14625 0.15254,0.26196 0.27441,0.34727 0.12186,0.0853 0.28633,0.14853 0.49351,0.18913 0.20717,0.0365 0.467,0.0548 0.77979,0.0548 0.3128,0 0.57314,-0.0182 0.78032,-0.0548 0.20717,-0.0406 0.37163,-0.10383 0.49351,-0.18913 0.12186,-0.0853 0.21082,-0.20102 0.26768,-0.34727 0.0609,-0.1503 0.10001,-0.33513 0.11627,-0.55449 0.0203,-0.22342 0.0305,-0.48753 0.0305,-0.7922 v -2.30321 h -1.0604 v 2.52904 c 0,0.19499 -0.006,0.35304 -0.0186,0.47491 -0.008,0.1178 -0.0323,0.20726 -0.0729,0.2682 -0.0366,0.0609 -0.0976,0.10162 -0.18294,0.12195 -0.0853,0.0163 -0.20316,0.0243 -0.35347,0.0243 -0.1503,0 -0.26978,-0.008 -0.35915,-0.0243 -0.0853,-0.0203 -0.14853,-0.061 -0.18913,-0.12195 -0.0365,-0.0609 -0.0607,-0.1504 -0.0729,-0.2682 -0.008,-0.12187 -0.0124,-0.27992 -0.0124,-0.47491 v -2.52904 z m 4.2292,0 v 4.1925 h 2.69286 v -0.85317 h -1.63298 v -3.33933 z m 2.33371,0 v 0.85317 h 1.14515 v 3.33933 h 1.0604 v -3.33933 h 1.15187 v -0.85317 z m 3.8995,0 v 4.1925 h 1.0604 v -4.1925 z m 1.93167,0 v 4.1925 h 0.98702 v -2.72386 h 0.0491 l 0.90175,2.72386 h 0.71262 l 0.90796,-2.72386 h 0.0429 v 2.72386 h 1.01751 v -4.1925 h -1.45056 l -0.83458,2.48615 h -0.0424 l -0.83509,-2.48615 z m 5.4839,0 v 4.1925 h 2.93729 v -0.81648 h -1.87689 v -0.89607 h 1.5906 v -0.80409 h -1.5906 v -0.85938 h 1.87689 v -0.81648 z m 3.6928,0 v 4.1925 l 1.46864,-5.1e-4 c 0.37373,0 0.67803,-0.0183 0.91364,-0.0548 0.23561,-0.0406 0.42044,-0.10545 0.55449,-0.19482 0.13406,-0.0934 0.22942,-0.21933 0.28629,-0.37775 0.0609,-0.1625 0.1,-0.3634 0.11627,-0.60307 0.0163,-0.23967 0.0243,-0.52841 0.0243,-0.86558 0,-0.33717 -0.008,-0.62539 -0.0243,-0.86506 -0.0162,-0.23968 -0.0553,-0.43896 -0.11627,-0.59738 -0.0569,-0.16249 -0.15224,-0.28838 -0.28629,-0.37776 -0.13405,-0.0934 -0.31888,-0.15828 -0.55449,-0.19482 -0.23561,-0.0406 -0.53991,-0.061 -0.91364,-0.061 z m 4.13101,0 v 4.1925 h 1.0604 v -4.1925 z m 2.87631,0 -1.3286,4.1925 h 1.04851 l 0.2434,-0.82268 h 1.49293 l 0.25012,0.82268 h 1.07228 l -1.3348,-4.1925 z m 9.08523,0 v 4.1925 h 1.0604 v -1.36529 h 0.93793 c 0.2803,0 0.50583,-0.0343 0.67645,-0.10335 0.17061,-0.0691 0.29864,-0.16656 0.38395,-0.29249 0.0894,-0.12593 0.14834,-0.27432 0.17674,-0.44493 0.0325,-0.17468 0.0486,-0.3654 0.0486,-0.57258 0,-0.22748 -0.016,-0.42891 -0.0486,-0.60358 -0.0325,-0.17468 -0.0936,-0.32093 -0.18294,-0.43873 -0.0894,-0.12187 -0.2174,-0.21295 -0.38395,-0.27389 -0.16656,-0.065 -0.38354,-0.0977 -0.65164,-0.0977 z m 3.91811,0 v 4.1925 h 2.93677 v -0.81648 h -1.87688 v -0.89607 h 1.5906 v -0.80409 h -1.5906 v -0.85938 h 1.87688 v -0.81648 z m 3.69228,0 v 4.1925 h 1.01751 v -2.45566 h 0.0305 l 1.46244,2.45566 h 0.99322 v -4.1925 h -1.0175 v 2.24844 h -0.0305 l -1.36478,-2.24844 z m 4.36925,0 v 4.1925 h 1.0175 v -2.45566 h 0.0305 l 1.46245,2.45566 h 0.99322 v -4.1925 h -1.01751 v 2.24844 h -0.0305 l -1.36529,-2.24844 z m 4.36872,0 v 4.1925 h 2.93729 v -0.81648 h -1.87689 v -0.89607 h 1.59008 v -0.80409 h -1.59008 v -0.85938 h 1.87689 v -0.81648 z m -18.92598,0.76791 c 0.14624,0 0.2641,0.006 0.35347,0.0181 0.0934,0.008 0.16631,0.0349 0.21911,0.0796 0.0528,0.0406 0.0919,0.10758 0.11627,0.20102 0.0244,0.0934 0.0384,0.22309 0.0424,0.38964 0.008,0.16655 0.0124,0.37976 0.0124,0.63975 0,0.25998 -0.004,0.4732 -0.0124,0.63976 -0.004,0.16655 -0.018,0.29672 -0.0424,0.39015 -0.0244,0.0934 -0.0635,0.16256 -0.11627,0.20722 -0.0528,0.0406 -0.12568,0.0669 -0.21911,0.0791 -0.0894,0.008 -0.20723,0.0124 -0.35347,0.0124 -0.14218,0 -0.26003,-0.004 -0.35346,-0.0124 -0.0934,-0.0122 -0.16631,-0.0385 -0.21911,-0.0791 -0.0528,-0.0447 -0.0914,-0.11379 -0.11576,-0.20722 -0.0243,-0.0934 -0.041,-0.2236 -0.0491,-0.39015 -0.004,-0.16656 -0.006,-0.37978 -0.006,-0.63976 0,-0.25999 0.002,-0.4732 0.006,-0.63975 0.008,-0.16655 0.0247,-0.29621 0.0491,-0.38964 0.0244,-0.0935 0.063,-0.16042 0.11576,-0.20102 0.0528,-0.0447 0.12568,-0.0714 0.21911,-0.0796 0.0934,-0.0122 0.21128,-0.0181 0.35346,-0.0181 z m 3.63802,0.0367 h 0.54829 c 0.14218,0 0.25362,0.008 0.33487,0.0243 0.0813,0.0122 0.14233,0.0406 0.18293,0.0853 0.0406,0.0406 0.0652,0.10169 0.0734,0.18294 0.0122,0.0812 0.0181,0.18678 0.0181,0.31677 0,0.13 -0.006,0.23553 -0.0181,0.31678 -0.0122,0.0772 -0.039,0.13827 -0.0796,0.18293 -0.0406,0.0406 -0.10331,0.069 -0.18862,0.0853 -0.0812,0.0163 -0.19534,0.0243 -0.34158,0.0243 h -0.52969 z m -72.63329,0.0119 h 0.38396 c 0.16655,0 0.30262,0.004 0.40824,0.0124 0.10562,0.008 0.18918,0.0323 0.25012,0.0729 0.0609,0.0406 0.10537,0.10759 0.13384,0.20102 0.0285,0.0894 0.0446,0.21526 0.0486,0.37775 0.008,0.15843 0.0124,0.36361 0.0124,0.61547 0,0.25186 -0.004,0.45918 -0.0124,0.62167 -0.004,0.15843 -0.0202,0.28432 -0.0486,0.37775 -0.0244,0.0894 -0.0688,0.15422 -0.13384,0.19482 -0.0609,0.0365 -0.1445,0.0612 -0.25012,0.0734 -0.10562,0.008 -0.24169,0.0124 -0.40824,0.0124 h -0.38396 z m 56.54074,0 h 0.38344 c 0.16655,0 0.30262,0.004 0.40824,0.0124 0.10562,0.008 0.18918,0.0323 0.25011,0.0729 0.061,0.0406 0.10545,0.10759 0.13385,0.20102 0.0285,0.0894 0.0451,0.21526 0.0491,0.37775 0.008,0.15843 0.0119,0.36361 0.0119,0.61547 0,0.25186 -0.004,0.45918 -0.0119,0.62167 -0.004,0.15843 -0.0206,0.28432 -0.0491,0.37775 -0.0244,0.0894 -0.0688,0.15422 -0.13385,0.19482 -0.0609,0.0365 -0.14449,0.0612 -0.25011,0.0734 -0.10562,0.008 -0.24169,0.0124 -0.40824,0.0124 h -0.38344 z m 6.62957,0.0977 h 0.0424 l 0.49971,1.65726 h -1.03611 z" /></g></g></svg>
