<svg xmlns="http://www.w3.org/2000/svg" width="256" height="256"><defs><filter id="a" x="-.118" width="1.235" y="-.118" height="1.235" color-interpolation-filters="sRGB"><feGaussianBlur stdDeviation="24.645"/></filter></defs><g transform="matrix(1.32174 0 0 1.32174 464.72 165.087)" stroke-width="2.86"><rect ry="84.075" rx="84.075" y="-112.135" x="-338.831" height="168.151" width="168.151" fill="#163e6a"/><path d="M388.188 136.714a251.475 251.475 0 0 0-251.475 251.474 251.475 251.475 0 0 0 251.475 251.475 251.475 251.475 0 0 0 251.476-251.475 251.475 251.475 0 0 0-251.476-251.474zm0 17.336a234.139 234.139 0 0 1 234.14 234.138 234.139 234.139 0 0 1-234.14 234.139 234.139 234.139 0 0 1-234.14-234.139 234.139 234.139 0 0 1 234.14-234.138z" transform="matrix(.26458 0 0 .26458 -357.464 -130.768)" opacity=".333" stroke="#000" stroke-width=".286" filter="url(#a)"/><path d="M-254.756-90.022a61.962 61.962 0 0 0-61.962 61.962 61.962 61.962 0 0 0 61.962 61.963 61.962 61.962 0 0 0 61.963-61.963 61.962 61.962 0 0 0-61.963-61.962zm-13.94 30.712h49.2c3.037 0 5.406 1.275 7.107 3.826 1.7 2.552 2.55 5.527 2.55 8.929 0 3.401-.85 6.378-2.55 8.93-1.701 2.55-4.07 3.826-7.107 3.826h-49.2c-3.644 0-5.467 1.822-5.467 5.466v21.867c0 3.037-1.276 5.406-3.827 7.107-2.55 1.7-5.527 2.551-8.928 2.551-3.402 0-6.378-.85-8.93-2.551-2.55-1.701-3.826-4.07-3.826-7.107v-21.867c0-12.877 5.163-21.927 15.489-27.15 4.252-2.066 9.415-3.341 15.49-3.827zm44.645 36.444c3.523 0 6.498 1.276 8.928 3.827 2.551 2.43 3.827 5.405 3.827 8.928 0 3.523-1.276 6.56-3.827 9.112-2.43 2.43-5.405 3.644-8.928 3.644-3.523 0-6.56-1.215-9.112-3.644-2.43-2.551-3.644-5.589-3.644-9.112 0-3.523 1.214-6.498 3.644-8.928 2.551-2.551 5.589-3.827 9.112-3.827z" fill="#fff"/></g></svg>